<svg id="Layer_1" data-name="Layer 1" xmlns="http://www.w3.org/2000/svg" viewBox="0 0 297 298"><defs><style>.cls-1{opacity:0.5;}.cls-2{fill:none;stroke:#e3ed26;stroke-miterlimit:10;stroke-width:0.5px;}</style></defs><title>portfolio</title><g class="cls-1"><polygon class="cls-2" points="154.21 173.72 155.2 172.01 153.23 172.01 154.21 173.72 155.2 172.01 153.23 172.01 154.21 173.72"/><polygon class="cls-2" points="153.76 179.17 160.14 169.68 148.74 168.9 153.76 179.17 160.14 169.68 148.74 168.9 153.76 179.17"/><polygon class="cls-2" points="152.4 182.34 163.58 169.27 146.67 166.13 152.4 182.34 163.58 169.27 146.67 166.13 152.4 182.34"/><polygon class="cls-2" points="149.22 184.62 167.13 170.89 146.29 162.24 149.22 184.62 167.13 170.89 146.29 162.24 149.22 184.62"/><polygon class="cls-2" points="145.59 186.89 170.92 172.9 146.14 157.96 145.59 186.89 170.92 172.9 146.14 157.96 145.59 186.89"/><polygon class="cls-2" points="138.32 189.16 176.52 178.06 147.81 150.53 138.32 189.16 176.52 178.06 147.81 150.53 138.32 189.16"/><polygon class="cls-2" points="134.69 189.61 178.73 180.98 149.23 147.16 134.69 189.61 178.73 180.98 149.23 147.16 134.69 189.61"/><polygon class="cls-2" points="130.6 189.61 180.77 184.52 151.27 143.62 130.6 189.61 180.77 184.52 151.27 143.62 130.6 189.61"/><polygon class="cls-2" points="126.06 189.61 183.04 188.45 153.54 139.68 126.06 189.61 183.04 188.45 153.54 139.68 126.06 189.61"/><polygon class="cls-2" points="124.24 187.34 181.98 191.16 156.42 139.25 124.24 187.34 181.98 191.16 156.42 139.25 124.24 187.34"/><polygon class="cls-2" points="119.7 183.25 180.71 197.13 162.23 137.36 119.7 183.25 180.71 197.13 162.23 137.36 119.7 183.25"/><polygon class="cls-2" points="118.79 180.53 178.81 199.28 165.04 137.93 118.79 180.53 178.81 199.28 165.04 137.93 118.79 180.53"/><polygon class="cls-2" points="117.43 176.9 176.34 202.28 168.87 138.57 117.43 176.9 176.34 202.28 168.87 138.57 117.43 176.9"/><polygon class="cls-2" points="116.52 171.9 172.47 205.56 173.65 140.28 116.52 171.9 172.47 205.56 173.65 140.28 116.52 171.9"/><polygon class="cls-2" points="115.16 161.91 164.5 211.74 182.98 144.09 115.16 161.91 164.5 211.74 182.98 144.09 115.16 161.91"/><polygon class="cls-2" points="114.71 156.01 159.61 215.08 188.32 146.65 114.71 156.01 159.61 215.08 188.32 146.65 114.71 156.01"/><polygon class="cls-2" points="114.71 151.92 156.07 217.13 191.86 148.7 114.71 151.92 156.07 217.13 191.86 148.7 114.71 151.92"/><polygon class="cls-2" points="114.71 149.19 153.72 218.49 194.22 150.06 114.71 149.19 153.72 218.49 194.22 150.06 114.71 149.19"/><polygon class="cls-2" points="114.71 146.01 150.96 220.08 196.98 151.65 114.71 146.01 150.96 220.08 196.98 151.65 114.71 146.01"/><polygon class="cls-2" points="114.71 143.29 148.6 221.44 199.34 153.01 114.71 143.29 148.6 221.44 199.34 153.01 114.71 143.29"/><polygon class="cls-2" points="116.98 138.29 143.14 221.97 202.53 157.47 116.98 138.29 143.14 221.97 202.53 157.47 116.98 138.29"/><polygon class="cls-2" points="117.89 136.48 141.11 222.09 203.65 159.17 117.89 136.48 141.11 222.09 203.65 159.17 117.89 136.48"/><polygon class="cls-2" points="119.25 134.66 138.86 221.82 204.54 161.26 119.25 134.66 138.86 221.82 204.54 161.26 119.25 134.66"/><polygon class="cls-2" points="121.06 132.39 135.99 221.38 205.59 163.97 121.06 132.39 135.99 221.38 205.59 163.97 121.06 132.39"/><polygon class="cls-2" points="127.88 127.85 128.65 217.76 206.12 172.14 127.88 127.85 128.65 217.76 206.12 172.14 127.88 127.85"/><polygon class="cls-2" points="135.59 123.76 121.25 213.12 205.8 180.87 135.59 123.76 121.25 213.12 205.8 180.87 135.59 123.76"/><polygon class="cls-2" points="135.59 123.76 121.25 213.12 205.8 180.87 135.59 123.76 121.25 213.12 205.8 180.87 135.59 123.76"/><polygon class="cls-2" points="151.94 119.22 109.14 201.23 201.56 197.29 151.94 119.22 109.14 201.23 201.56 197.29 151.94 119.22"/><polygon class="cls-2" points="157.85 119.22 106.19 196.11 198.61 202.41 157.85 119.22 106.19 196.11 198.61 202.41 157.85 119.22"/><polygon class="cls-2" points="167.84 119.22 101.19 187.46 193.61 211.06 167.84 119.22 101.19 187.46 193.61 211.06 167.84 119.22"/><polygon class="cls-2" points="174.65 119.22 97.79 181.56 190.21 216.96 174.65 119.22 97.79 181.56 190.21 216.96 174.65 119.22"/><polygon class="cls-2" points="180.1 120.58 96.24 176.16 186.3 221 180.1 120.58 96.24 176.16 186.3 221 180.1 120.58"/><polygon class="cls-2" points="191 124.22 93.94 164.91 177.71 228.62 191 124.22 93.94 164.91 177.71 228.62 191 124.22"/><polygon class="cls-2" points="195.54 126.49 93.63 159.84 173.47 231.42 195.54 126.49 93.63 159.84 173.47 231.42 195.54 126.49"/><polygon class="cls-2" points="201.44 129.21 93.04 153.36 168.16 235.17 201.44 129.21 93.04 153.36 168.16 235.17 201.44 129.21"/><polygon class="cls-2" points="205.98 131.48 92.74 148.3 163.92 237.96 205.98 131.48 92.74 148.3 163.92 237.96 205.98 131.48"/><polygon class="cls-2" points="215.07 136.93 92.92 137.71 154.66 243.1 215.07 136.93 92.92 137.71 154.66 243.1 215.07 136.93"/><polygon class="cls-2" points="218.7 140.57 94.25 132.74 149.7 244.44 218.7 140.57 94.25 132.74 149.7 244.44 218.7 140.57"/><polygon class="cls-2" points="220.52 142.38 94.91 130.26 147.22 245.1 220.52 142.38 94.91 130.26 147.22 245.1 220.52 142.38"/><polygon class="cls-2" points="222.79 144.65 95.74 127.16 144.12 245.93 222.79 144.65 95.74 127.16 144.12 245.93 222.79 144.65"/><polygon class="cls-2" points="225.06 147.38 96.97 123.83 140.62 246.53 225.06 147.38 96.97 123.83 140.62 246.53 225.06 147.38"/><polygon class="cls-2" points="226.87 150.1 98.42 120.9 137.35 246.75 226.87 150.1 98.42 120.9 137.35 246.75 226.87 150.1"/><polygon class="cls-2" points="230.96 157.37 102.67 113.72 129.02 246.65 230.96 157.37 102.67 113.72 129.02 246.65 230.96 157.37"/><polygon class="cls-2" points="232.32 160.09 104.34 111.18 125.97 246.47 232.32 160.09 104.34 111.18 125.97 246.47 232.32 160.09"/><polygon class="cls-2" points="234.59 164.18 106.75 107.17 121.3 246.39 234.59 164.18 106.75 107.17 121.3 246.39 234.59 164.18"/><polygon class="cls-2" points="236.86 167.36 108.37 103.61 117.41 246.77 236.86 167.36 108.37 103.61 117.41 246.77 236.86 167.36"/><polygon class="cls-2" points="239.59 175.08 113.69 97.4 109.36 245.27 239.59 175.08 113.69 97.4 109.36 245.27 239.59 175.08"/><polygon class="cls-2" points="241.86 179.17 116.09 93.39 104.69 245.19 241.86 179.17 116.09 93.39 104.69 245.19 241.86 179.17"/><polygon class="cls-2" points="243.68 181.44 117.15 90.68 101.81 245.63 243.68 181.44 117.15 90.68 101.81 245.63 243.68 181.44"/><polygon class="cls-2" points="245.04 185.52 120.01 87.45 97.59 244.77 245.04 185.52 120.01 87.45 97.59 244.77 245.04 185.52"/><polygon class="cls-2" points="246.4 188.25 121.69 84.91 94.55 244.58 246.4 188.25 121.69 84.91 94.55 244.58 246.4 188.25"/><polygon class="cls-2" points="248.67 194.61 126.06 79.77 87.91 243.37 248.67 194.61 126.06 79.77 87.91 243.37 248.67 194.61"/><polygon class="cls-2" points="250.49 200.51 130.26 75.24 81.89 241.99 250.49 200.51 130.26 75.24 81.89 241.99 250.49 200.51"/><polygon class="cls-2" points="250.94 205.05 133.97 72.58 77.73 240.12 250.94 205.05 133.97 72.58 77.73 240.12 250.94 205.05"/><polygon class="cls-2" points="252.31 217.31 143.91 65.27 66.43 235.16 252.31 217.31 143.91 65.27 66.43 235.16 252.31 217.31"/><polygon class="cls-2" points="252.31 223.22 149.02 62.31 61.32 232.21 252.31 223.22 149.02 62.31 61.32 232.21 252.31 223.22"/><polygon class="cls-2" points="252.31 232.3 156.89 57.77 53.45 227.67 252.31 232.3 156.89 57.77 53.45 227.67 252.31 232.3"/><polygon class="cls-2" points="252.31 235.48 159.64 56.19 50.7 226.08 252.31 235.48 159.64 56.19 50.7 226.08 252.31 235.48"/><polygon class="cls-2" points="253.21 239.11 162.33 53.58 47.1 225.05 253.21 239.11 162.33 53.58 47.1 225.05 253.21 239.11"/><polygon class="cls-2" points="253.21 240.93 163.9 52.67 45.53 224.14 253.21 240.93 163.9 52.67 45.53 224.14 253.21 240.93"/><polygon class="cls-2" points="253.67 242.29 164.86 51.6 44.12 223.86 253.67 242.29 164.86 51.6 44.12 223.86 253.67 242.29"/><polygon class="cls-2" points="253.67 242.74 165.25 51.37 43.73 223.63 253.67 242.74 165.25 51.37 43.73 223.63 253.67 242.74"/><polygon class="cls-2" points="253.67 243.2 165.64 51.15 43.33 223.4 253.67 243.2 165.64 51.15 43.33 223.4 253.67 243.2"/><polygon class="cls-2" points="253.67 243.2 165.64 51.15 43.33 223.4 253.67 243.2 165.64 51.15 43.33 223.4 253.67 243.2"/><polygon class="cls-2" points="253.67 243.2 165.64 51.15 43.33 223.4 253.67 243.2 165.64 51.15 43.33 223.4 253.67 243.2"/></g></svg>