<svg id="Layer_1" data-name="Layer 1" xmlns="http://www.w3.org/2000/svg" viewBox="0 0 297 298"><defs><style>.cls-1{opacity:0.5;}.cls-2{fill:none;stroke:#e3ed26;stroke-miterlimit:10;}</style></defs><title>portfolio</title><g class="cls-1"><circle class="cls-2" cx="142.03" cy="160.29" r="0.85"/><ellipse class="cls-2" cx="145.08" cy="159.68" rx="3.91" ry="0.24"/><ellipse class="cls-2" cx="145.08" cy="159.56" rx="3.91" ry="0.12"/><ellipse class="cls-2" cx="147.77" cy="159.68" rx="6.59" ry="0.24"/><ellipse class="cls-2" cx="150.82" cy="158.46" rx="9.64" ry="0.98"/><ellipse class="cls-2" cx="154.11" cy="156.75" rx="12.94" ry="2.69"/><ellipse class="cls-2" cx="155.58" cy="155.53" rx="14.4" ry="3.91"/><ellipse class="cls-2" cx="157.29" cy="151.99" rx="16.11" ry="7.45"/><ellipse class="cls-2" cx="158.51" cy="146.99" rx="17.33" ry="12.45"/><circle class="cls-2" cx="158.14" cy="142.47" r="16.97"/><ellipse class="cls-2" cx="158.26" cy="138.69" rx="17.09" ry="20.75"/><ellipse class="cls-2" cx="157.04" cy="135.52" rx="15.87" ry="23.92"/><ellipse class="cls-2" cx="154.6" cy="132.59" rx="13.43" ry="26.85"/><ellipse class="cls-2" cx="150.82" cy="128.44" rx="9.64" ry="31"/><ellipse class="cls-2" cx="147.77" cy="127.22" rx="6.59" ry="32.22"/><ellipse class="cls-2" cx="144.47" cy="127.22" rx="3.3" ry="32.22"/><ellipse class="cls-2" cx="137.51" cy="127.34" rx="3.66" ry="32.1"/><ellipse class="cls-2" cx="130.92" cy="129.9" rx="10.25" ry="29.54"/><ellipse class="cls-2" cx="126.77" cy="132.59" rx="14.4" ry="26.85"/><circle class="cls-2" cx="121.28" cy="139.54" r="19.9"/><ellipse class="cls-2" cx="117.25" cy="149.92" rx="23.92" ry="9.52"/><ellipse class="cls-2" cx="113.35" cy="165.3" rx="27.83" ry="5.86"/><ellipse class="cls-2" cx="111.88" cy="178.97" rx="29.29" ry="19.53"/><ellipse class="cls-2" cx="113.59" cy="192.27" rx="27.59" ry="32.83"/><ellipse class="cls-2" cx="118.23" cy="202.65" rx="22.95" ry="43.21"/><ellipse class="cls-2" cx="126.04" cy="211.68" rx="15.14" ry="52.24"/><ellipse class="cls-2" cx="133.12" cy="214.61" rx="8.06" ry="55.17"/><ellipse class="cls-2" cx="143.86" cy="215.22" rx="2.69" ry="55.78"/><ellipse class="cls-2" cx="159.24" cy="207.77" rx="18.06" ry="48.33"/><ellipse class="cls-2" cx="171.2" cy="195.08" rx="30.03" ry="35.64"/><ellipse class="cls-2" cx="177.79" cy="164.08" rx="36.62" ry="4.64"/><ellipse class="cls-2" cx="175.6" cy="140.15" rx="34.42" ry="19.29"/><ellipse class="cls-2" cx="172.18" cy="132.59" rx="31" ry="26.85"/><ellipse class="cls-2" cx="171.45" cy="130.63" rx="30.27" ry="28.81"/><ellipse class="cls-2" cx="171.45" cy="130.63" rx="30.27" ry="28.81"/><ellipse class="cls-2" cx="171.45" cy="130.63" rx="30.27" ry="28.81"/><ellipse class="cls-2" cx="171.45" cy="130.63" rx="30.27" ry="28.81"/></g></svg>