<svg id="Layer_1" data-name="Layer 1" xmlns="http://www.w3.org/2000/svg" xmlns:xlink="http://www.w3.org/1999/xlink" viewBox="0 0 297 298"><defs><style>.cls-1{fill:url(#linear-gradient);}.cls-2{mask:url(#mask);}.cls-3{opacity:0.5;}.cls-4{fill:#e3ed26;}</style><linearGradient id="linear-gradient" x1="147.94" y1="259.88" x2="147.94" y2="69.31" gradientUnits="userSpaceOnUse"><stop offset="0" stop-color="#fff"/><stop offset="0.14" stop-color="#fbfbfb"/><stop offset="0.27" stop-color="#f0f0f0"/><stop offset="0.39" stop-color="#dedede"/><stop offset="0.51" stop-color="#c4c4c4"/><stop offset="0.63" stop-color="#a2a2a2"/><stop offset="0.74" stop-color="#797979"/><stop offset="0.86" stop-color="#494949"/><stop offset="0.97" stop-color="#121212"/><stop offset="1"/></linearGradient><mask id="mask" x="51.92" y="65.07" width="192.04" height="199.06" maskUnits="userSpaceOnUse"><rect class="cls-1" x="56.17" y="69.31" width="183.54" height="190.56"/><path d="M235.46,73.56V255.63h-175V73.56h175m8.5-8.5h-192V264.13H244V65.07Z"/></mask></defs><title>portfolio</title><g class="cls-2"><g class="cls-3"><path class="cls-4" d="M65.28,79h-5V78h2V72.16l-1.91,1-.39-.9L62.56,71h.94v7h1.78Z"/><path class="cls-4" d="M72.4,75a7.07,7.07,0,0,1-.18,1.67,3.87,3.87,0,0,1-.56,1.29,2.61,2.61,0,0,1-.92.84,2.71,2.71,0,0,1-1.3.3,2.76,2.76,0,0,1-1.17-.24,2.31,2.31,0,0,1-.9-.74,3.66,3.66,0,0,1-.57-1.28A7.37,7.37,0,0,1,66.6,75a7,7,0,0,1,.19-1.67,3.94,3.94,0,0,1,.56-1.3,2.58,2.58,0,0,1,.92-.84,2.71,2.71,0,0,1,1.29-.3,2.76,2.76,0,0,1,1.17.24,2.31,2.31,0,0,1,.9.74,3.7,3.7,0,0,1,.57,1.28A7.37,7.37,0,0,1,72.4,75Zm-4.72,0q0,.19,0,.38t0,.37l3.37-2.5a2.86,2.86,0,0,0-.23-.57,1.81,1.81,0,0,0-.34-.44A1.5,1.5,0,0,0,68.74,72a1.68,1.68,0,0,0-.58.6,3.3,3.3,0,0,0-.37,1A6.46,6.46,0,0,0,67.67,74.94Zm3.65.07q0-.21,0-.41t0-.4L67.9,76.71a3.13,3.13,0,0,0,.23.59,1.79,1.79,0,0,0,.34.46,1.45,1.45,0,0,0,.45.3,1.47,1.47,0,0,0,.58.11,1.45,1.45,0,0,0,.75-.2,1.68,1.68,0,0,0,.58-.6,3.26,3.26,0,0,0,.37-1A6.46,6.46,0,0,0,71.32,75Z"/><path class="cls-4" d="M79,79H74V78h2V72.16l-1.91,1-.39-.9L76.29,71h.94v7H79Z"/><path class="cls-4" d="M85.89,79h-5V78h2V72.16l-1.91,1-.39-.9L83.16,71h.94v7h1.78Z"/><path class="cls-4" d="M93,75a7.07,7.07,0,0,1-.18,1.67,3.86,3.86,0,0,1-.56,1.29,2.61,2.61,0,0,1-.92.84,2.71,2.71,0,0,1-1.3.3,2.76,2.76,0,0,1-1.17-.24,2.31,2.31,0,0,1-.9-.74,3.66,3.66,0,0,1-.57-1.28,7.36,7.36,0,0,1-.2-1.84,7,7,0,0,1,.19-1.67A4,4,0,0,1,88,72a2.58,2.58,0,0,1,.92-.84,2.71,2.71,0,0,1,1.29-.3,2.76,2.76,0,0,1,1.17.24,2.31,2.31,0,0,1,.9.74,3.7,3.7,0,0,1,.57,1.28A7.37,7.37,0,0,1,93,75Zm-4.72,0q0,.19,0,.38t0,.37l3.37-2.5a2.85,2.85,0,0,0-.23-.57,1.8,1.8,0,0,0-.34-.44A1.49,1.49,0,0,0,89.35,72a1.67,1.67,0,0,0-.58.6,3.3,3.3,0,0,0-.37,1A6.46,6.46,0,0,0,88.28,74.94Zm3.65.07q0-.21,0-.41t0-.4l-3.37,2.51a3.13,3.13,0,0,0,.23.59,1.79,1.79,0,0,0,.34.46,1.45,1.45,0,0,0,.45.3,1.47,1.47,0,0,0,.58.11,1.45,1.45,0,0,0,.75-.2,1.68,1.68,0,0,0,.58-.6,3.26,3.26,0,0,0,.37-1A6.46,6.46,0,0,0,91.93,75Z"/><path class="cls-4" d="M99.63,79h-5V78h2.05V72.16l-1.91,1-.39-.9L96.9,71h.94v7h1.78Z"/><path class="cls-4" d="M106.49,79h-5V78h2.05V72.16l-1.91,1-.39-.9L103.77,71h.94v7h1.78Z"/><path class="cls-4" d="M113.61,75a7.07,7.07,0,0,1-.18,1.67,3.86,3.86,0,0,1-.56,1.29,2.61,2.61,0,0,1-.92.84,2.71,2.71,0,0,1-1.3.3,2.76,2.76,0,0,1-1.17-.24,2.31,2.31,0,0,1-.9-.74,3.66,3.66,0,0,1-.57-1.28,7.37,7.37,0,0,1-.2-1.84,7,7,0,0,1,.19-1.67,4,4,0,0,1,.56-1.3,2.58,2.58,0,0,1,.92-.84,2.71,2.71,0,0,1,1.29-.3,2.76,2.76,0,0,1,1.17.24,2.31,2.31,0,0,1,.9.74,3.7,3.7,0,0,1,.57,1.28A7.37,7.37,0,0,1,113.61,75Zm-4.72,0q0,.19,0,.38t0,.37l3.37-2.5a2.86,2.86,0,0,0-.23-.57,1.81,1.81,0,0,0-.34-.44A1.49,1.49,0,0,0,110,72a1.67,1.67,0,0,0-.58.6,3.3,3.3,0,0,0-.37,1A6.46,6.46,0,0,0,108.89,74.94Zm3.65.07q0-.21,0-.41t0-.4l-3.37,2.51a3.13,3.13,0,0,0,.23.59,1.78,1.78,0,0,0,.34.46,1.45,1.45,0,0,0,.45.3,1.47,1.47,0,0,0,.58.11,1.45,1.45,0,0,0,.75-.2,1.68,1.68,0,0,0,.58-.6,3.26,3.26,0,0,0,.37-1A6.46,6.46,0,0,0,112.54,75Z"/><path class="cls-4" d="M120.23,79h-5V78h2V72.16l-1.91,1-.39-.9L117.51,71h.94v7h1.78Z"/><path class="cls-4" d="M127.1,79h-5V78h2V72.16l-1.91,1-.39-.9L124.38,71h.94v7h1.78Z"/><path class="cls-4" d="M134.22,75a7.06,7.06,0,0,1-.18,1.67,3.87,3.87,0,0,1-.56,1.29,2.61,2.61,0,0,1-.92.84,2.71,2.71,0,0,1-1.3.3,2.76,2.76,0,0,1-1.17-.24,2.31,2.31,0,0,1-.9-.74,3.66,3.66,0,0,1-.57-1.28,7.37,7.37,0,0,1-.2-1.84,7,7,0,0,1,.19-1.67,3.94,3.94,0,0,1,.56-1.3,2.58,2.58,0,0,1,.92-.84,2.71,2.71,0,0,1,1.29-.3,2.76,2.76,0,0,1,1.17.24,2.31,2.31,0,0,1,.9.74,3.7,3.7,0,0,1,.57,1.28A7.37,7.37,0,0,1,134.22,75Zm-4.72,0q0,.19,0,.38t0,.37l3.37-2.5a2.85,2.85,0,0,0-.23-.57,1.8,1.8,0,0,0-.34-.44,1.49,1.49,0,0,0-1.76-.19,1.68,1.68,0,0,0-.58.6,3.3,3.3,0,0,0-.37,1A6.46,6.46,0,0,0,129.5,74.94Zm3.65.07q0-.21,0-.41t0-.4l-3.37,2.51a3.13,3.13,0,0,0,.23.59,1.79,1.79,0,0,0,.34.46,1.45,1.45,0,0,0,.45.3,1.47,1.47,0,0,0,.58.11,1.45,1.45,0,0,0,.75-.2,1.68,1.68,0,0,0,.58-.6,3.25,3.25,0,0,0,.37-1A6.46,6.46,0,0,0,133.15,75Z"/><path class="cls-4" d="M148,75a7.07,7.07,0,0,1-.18,1.67,3.86,3.86,0,0,1-.56,1.29,2.61,2.61,0,0,1-.92.84,2.71,2.71,0,0,1-1.3.3,2.76,2.76,0,0,1-1.17-.24,2.31,2.31,0,0,1-.9-.74,3.66,3.66,0,0,1-.57-1.28,7.37,7.37,0,0,1-.2-1.84,7,7,0,0,1,.19-1.67,3.94,3.94,0,0,1,.56-1.3,2.58,2.58,0,0,1,.92-.84,2.71,2.71,0,0,1,1.29-.3,2.76,2.76,0,0,1,1.17.24,2.31,2.31,0,0,1,.9.74,3.7,3.7,0,0,1,.57,1.28A7.37,7.37,0,0,1,148,75Zm-4.72,0q0,.19,0,.38t0,.37l3.37-2.5a2.85,2.85,0,0,0-.23-.57,1.8,1.8,0,0,0-.34-.44,1.49,1.49,0,0,0-1.76-.19,1.67,1.67,0,0,0-.58.6,3.3,3.3,0,0,0-.37,1A6.45,6.45,0,0,0,143.24,74.94Zm3.65.07q0-.21,0-.41t0-.4l-3.37,2.51a3.13,3.13,0,0,0,.23.59,1.79,1.79,0,0,0,.34.46,1.45,1.45,0,0,0,.45.3,1.47,1.47,0,0,0,.58.11,1.45,1.45,0,0,0,.75-.2,1.68,1.68,0,0,0,.58-.6,3.26,3.26,0,0,0,.37-1A6.46,6.46,0,0,0,146.89,75Z"/><path class="cls-4" d="M154.58,79h-5V78h2.05V72.16l-1.91,1-.39-.9L151.86,71h.94v7h1.78Z"/><path class="cls-4" d="M161.7,75a7.07,7.07,0,0,1-.18,1.67,3.87,3.87,0,0,1-.56,1.29,2.61,2.61,0,0,1-.92.84,2.71,2.71,0,0,1-1.3.3,2.76,2.76,0,0,1-1.17-.24,2.31,2.31,0,0,1-.9-.74,3.66,3.66,0,0,1-.57-1.28,7.37,7.37,0,0,1-.2-1.84,7,7,0,0,1,.19-1.67,3.94,3.94,0,0,1,.56-1.3,2.58,2.58,0,0,1,.92-.84,2.71,2.71,0,0,1,1.29-.3,2.76,2.76,0,0,1,1.17.24,2.31,2.31,0,0,1,.9.74,3.7,3.7,0,0,1,.57,1.28A7.36,7.36,0,0,1,161.7,75Zm-4.72,0q0,.19,0,.38t0,.37l3.37-2.5a2.86,2.86,0,0,0-.23-.57,1.81,1.81,0,0,0-.34-.44,1.49,1.49,0,0,0-1.76-.19,1.68,1.68,0,0,0-.58.6,3.3,3.3,0,0,0-.37,1A6.46,6.46,0,0,0,157,74.94Zm3.65.07q0-.21,0-.41t0-.4l-3.37,2.51a3.13,3.13,0,0,0,.23.59,1.79,1.79,0,0,0,.34.46,1.45,1.45,0,0,0,.45.3,1.47,1.47,0,0,0,.58.11,1.45,1.45,0,0,0,.75-.2,1.68,1.68,0,0,0,.58-.6,3.26,3.26,0,0,0,.37-1A6.46,6.46,0,0,0,160.63,75Z"/><path class="cls-4" d="M168.32,79h-5V78h2V72.16l-1.91,1-.39-.9L165.6,71h.94v7h1.78Z"/><path class="cls-4" d="M182.31,75a7.07,7.07,0,0,1-.18,1.67,3.87,3.87,0,0,1-.56,1.29,2.61,2.61,0,0,1-.92.84,2.71,2.71,0,0,1-1.3.3,2.76,2.76,0,0,1-1.17-.24,2.31,2.31,0,0,1-.9-.74,3.66,3.66,0,0,1-.57-1.28,7.37,7.37,0,0,1-.2-1.84,7,7,0,0,1,.19-1.67,3.94,3.94,0,0,1,.56-1.3,2.58,2.58,0,0,1,.92-.84,2.71,2.71,0,0,1,1.29-.3,2.76,2.76,0,0,1,1.17.24,2.31,2.31,0,0,1,.9.74,3.7,3.7,0,0,1,.57,1.28A7.37,7.37,0,0,1,182.31,75Zm-4.72,0q0,.19,0,.38t0,.37l3.37-2.5a2.85,2.85,0,0,0-.23-.57,1.8,1.8,0,0,0-.34-.44,1.5,1.5,0,0,0-1.76-.19,1.68,1.68,0,0,0-.58.6,3.3,3.3,0,0,0-.37,1A6.46,6.46,0,0,0,177.59,74.94Zm3.65.07q0-.21,0-.41t0-.4l-3.37,2.51a3.13,3.13,0,0,0,.23.59,1.79,1.79,0,0,0,.34.46,1.45,1.45,0,0,0,.45.3,1.47,1.47,0,0,0,.58.11,1.45,1.45,0,0,0,.75-.2,1.68,1.68,0,0,0,.58-.6,3.25,3.25,0,0,0,.37-1A6.46,6.46,0,0,0,181.24,75Z"/><path class="cls-4" d="M188.93,79h-5V78h2V72.16l-1.91,1-.39-.9L186.21,71h.94v7h1.78Z"/><path class="cls-4" d="M202.92,75a7.07,7.07,0,0,1-.18,1.67,3.87,3.87,0,0,1-.56,1.29,2.61,2.61,0,0,1-.92.84,2.71,2.71,0,0,1-1.3.3,2.76,2.76,0,0,1-1.17-.24,2.31,2.31,0,0,1-.9-.74,3.66,3.66,0,0,1-.57-1.28,7.37,7.37,0,0,1-.2-1.84,7,7,0,0,1,.19-1.67,3.94,3.94,0,0,1,.56-1.3,2.58,2.58,0,0,1,.92-.84,2.71,2.71,0,0,1,1.29-.3,2.76,2.76,0,0,1,1.17.24,2.31,2.31,0,0,1,.9.74,3.7,3.7,0,0,1,.57,1.28A7.37,7.37,0,0,1,202.92,75Zm-4.72,0q0,.19,0,.38t0,.37l3.37-2.5a2.86,2.86,0,0,0-.23-.57,1.8,1.8,0,0,0-.34-.44,1.49,1.49,0,0,0-1.76-.19,1.67,1.67,0,0,0-.58.6,3.3,3.3,0,0,0-.37,1A6.46,6.46,0,0,0,198.2,74.94Zm3.65.07q0-.21,0-.41t0-.4l-3.37,2.51a3.13,3.13,0,0,0,.23.59,1.79,1.79,0,0,0,.34.46,1.45,1.45,0,0,0,.45.3,1.47,1.47,0,0,0,.58.11,1.45,1.45,0,0,0,.75-.2,1.68,1.68,0,0,0,.58-.6,3.26,3.26,0,0,0,.37-1A6.46,6.46,0,0,0,201.85,75Z"/><path class="cls-4" d="M209.54,79h-5V78h2V72.16l-1.91,1-.39-.9L206.82,71h.94v7h1.78Z"/><path class="cls-4" d="M216.66,75a7.07,7.07,0,0,1-.18,1.67,3.86,3.86,0,0,1-.56,1.29,2.61,2.61,0,0,1-.92.84,2.71,2.71,0,0,1-1.3.3,2.76,2.76,0,0,1-1.17-.24,2.31,2.31,0,0,1-.9-.74,3.66,3.66,0,0,1-.57-1.28,7.37,7.37,0,0,1-.2-1.84,7,7,0,0,1,.19-1.67,3.94,3.94,0,0,1,.56-1.3,2.58,2.58,0,0,1,.92-.84,2.71,2.71,0,0,1,1.29-.3,2.76,2.76,0,0,1,1.17.24,2.31,2.31,0,0,1,.9.74,3.7,3.7,0,0,1,.57,1.28A7.37,7.37,0,0,1,216.66,75Zm-4.72,0q0,.19,0,.38t0,.37l3.37-2.5a2.86,2.86,0,0,0-.23-.57,1.81,1.81,0,0,0-.34-.44A1.49,1.49,0,0,0,213,72a1.67,1.67,0,0,0-.58.6,3.3,3.3,0,0,0-.37,1A6.46,6.46,0,0,0,211.94,74.94Zm3.65.07q0-.21,0-.41t0-.4l-3.37,2.51a3.14,3.14,0,0,0,.23.59,1.78,1.78,0,0,0,.34.46,1.45,1.45,0,0,0,.45.3,1.47,1.47,0,0,0,.58.11,1.45,1.45,0,0,0,.75-.2,1.68,1.68,0,0,0,.58-.6,3.26,3.26,0,0,0,.37-1A6.46,6.46,0,0,0,215.59,75Z"/><path class="cls-4" d="M223.28,79h-5V78h2V72.16l-1.91,1-.39-.9L220.56,71h.94v7h1.78Z"/><path class="cls-4" d="M230.4,75a7.07,7.07,0,0,1-.18,1.67,3.86,3.86,0,0,1-.56,1.29,2.61,2.61,0,0,1-.92.84,2.71,2.71,0,0,1-1.3.3,2.76,2.76,0,0,1-1.17-.24,2.31,2.31,0,0,1-.9-.74,3.66,3.66,0,0,1-.57-1.28,7.37,7.37,0,0,1-.2-1.84,7,7,0,0,1,.19-1.67,4,4,0,0,1,.55-1.3,2.58,2.58,0,0,1,.92-.84,2.71,2.71,0,0,1,1.29-.3,2.76,2.76,0,0,1,1.17.24,2.31,2.31,0,0,1,.9.74,3.69,3.69,0,0,1,.57,1.28A7.36,7.36,0,0,1,230.4,75Zm-4.72,0q0,.19,0,.38t0,.37l3.37-2.5a2.83,2.83,0,0,0-.23-.57,1.8,1.8,0,0,0-.34-.44,1.5,1.5,0,0,0-1.76-.19,1.68,1.68,0,0,0-.58.6,3.3,3.3,0,0,0-.37,1A6.45,6.45,0,0,0,225.68,74.94Zm3.65.07q0-.21,0-.41t0-.4l-3.37,2.51a3.13,3.13,0,0,0,.23.59,1.79,1.79,0,0,0,.34.46,1.46,1.46,0,0,0,.45.3,1.47,1.47,0,0,0,.58.11,1.45,1.45,0,0,0,.75-.2,1.68,1.68,0,0,0,.58-.6,3.25,3.25,0,0,0,.37-1A6.45,6.45,0,0,0,229.33,75Z"/><path class="cls-4" d="M237,79h-5V78h2.05V72.16l-1.91,1-.39-.9L234.3,71h.94v7H237Z"/><path class="cls-4" d="M65.28,94h-5V93h2V87.15l-1.91,1-.39-.9,2.54-1.34h.94v7h1.78Z"/><path class="cls-4" d="M72.4,90a7.07,7.07,0,0,1-.18,1.67,3.87,3.87,0,0,1-.56,1.29,2.61,2.61,0,0,1-.92.84,2.71,2.71,0,0,1-1.3.3,2.76,2.76,0,0,1-1.17-.24,2.31,2.31,0,0,1-.9-.74,3.66,3.66,0,0,1-.57-1.28A7.37,7.37,0,0,1,66.6,90a7,7,0,0,1,.19-1.67,3.94,3.94,0,0,1,.56-1.3,2.58,2.58,0,0,1,.92-.84,2.71,2.71,0,0,1,1.29-.3,2.76,2.76,0,0,1,1.17.24,2.31,2.31,0,0,1,.9.74,3.7,3.7,0,0,1,.57,1.28A7.37,7.37,0,0,1,72.4,90Zm-4.72,0q0,.19,0,.38t0,.37l3.37-2.5a2.86,2.86,0,0,0-.23-.57,1.81,1.81,0,0,0-.34-.44A1.49,1.49,0,0,0,68.74,87a1.68,1.68,0,0,0-.58.6,3.3,3.3,0,0,0-.37,1A6.46,6.46,0,0,0,67.67,89.94Zm3.65.07q0-.21,0-.41t0-.4L67.9,91.71a3.13,3.13,0,0,0,.23.59,1.78,1.78,0,0,0,.34.46,1.45,1.45,0,0,0,.45.3,1.47,1.47,0,0,0,.58.11,1.45,1.45,0,0,0,.75-.2,1.68,1.68,0,0,0,.58-.6,3.26,3.26,0,0,0,.37-1A6.46,6.46,0,0,0,71.32,90Z"/><path class="cls-4" d="M79,94H74V93h2V87.15l-1.91,1-.39-.9,2.54-1.34h.94v7H79Z"/><path class="cls-4" d="M86.14,90A7.07,7.07,0,0,1,86,91.64a3.86,3.86,0,0,1-.56,1.29,2.61,2.61,0,0,1-.92.84,2.71,2.71,0,0,1-1.3.3A2.76,2.76,0,0,1,82,93.83a2.31,2.31,0,0,1-.9-.74,3.66,3.66,0,0,1-.57-1.28,7.37,7.37,0,0,1-.2-1.84,7,7,0,0,1,.19-1.67,3.94,3.94,0,0,1,.56-1.3,2.58,2.58,0,0,1,.92-.84,2.71,2.71,0,0,1,1.29-.3,2.76,2.76,0,0,1,1.17.24,2.31,2.31,0,0,1,.9.74,3.7,3.7,0,0,1,.57,1.28A7.37,7.37,0,0,1,86.14,90Zm-4.72,0q0,.19,0,.38t0,.37l3.37-2.5a2.86,2.86,0,0,0-.23-.57,1.8,1.8,0,0,0-.34-.44A1.49,1.49,0,0,0,82.48,87a1.67,1.67,0,0,0-.58.6,3.3,3.3,0,0,0-.37,1A6.46,6.46,0,0,0,81.41,89.94Zm3.65.07q0-.21,0-.41t0-.4l-3.37,2.51a3.13,3.13,0,0,0,.23.59,1.79,1.79,0,0,0,.34.46,1.45,1.45,0,0,0,.45.3,1.47,1.47,0,0,0,.58.11A1.45,1.45,0,0,0,84,93a1.68,1.68,0,0,0,.58-.6,3.26,3.26,0,0,0,.37-1A6.46,6.46,0,0,0,85.06,90Z"/><path class="cls-4" d="M93,90a7.07,7.07,0,0,1-.18,1.67,3.86,3.86,0,0,1-.56,1.29,2.61,2.61,0,0,1-.92.84,2.71,2.71,0,0,1-1.3.3,2.76,2.76,0,0,1-1.17-.24,2.31,2.31,0,0,1-.9-.74,3.66,3.66,0,0,1-.57-1.28,7.36,7.36,0,0,1-.2-1.84,7,7,0,0,1,.19-1.67A4,4,0,0,1,88,87a2.58,2.58,0,0,1,.92-.84,2.71,2.71,0,0,1,1.29-.3,2.76,2.76,0,0,1,1.17.24,2.31,2.31,0,0,1,.9.74,3.7,3.7,0,0,1,.57,1.28A7.37,7.37,0,0,1,93,90Zm-4.72,0q0,.19,0,.38t0,.37l3.37-2.5a2.85,2.85,0,0,0-.23-.57,1.8,1.8,0,0,0-.34-.44A1.49,1.49,0,0,0,89.35,87a1.67,1.67,0,0,0-.58.6,3.3,3.3,0,0,0-.37,1A6.46,6.46,0,0,0,88.28,89.94Zm3.65.07q0-.21,0-.41t0-.4l-3.37,2.51a3.13,3.13,0,0,0,.23.59,1.78,1.78,0,0,0,.34.46,1.45,1.45,0,0,0,.45.3,1.47,1.47,0,0,0,.58.11,1.45,1.45,0,0,0,.75-.2,1.68,1.68,0,0,0,.58-.6,3.26,3.26,0,0,0,.37-1A6.46,6.46,0,0,0,91.93,90Z"/><path class="cls-4" d="M99.63,94h-5V93h2.05V87.15l-1.91,1-.39-.9,2.54-1.34h.94v7h1.78Z"/><path class="cls-4" d="M106.74,90a7.07,7.07,0,0,1-.18,1.67,3.86,3.86,0,0,1-.56,1.29,2.61,2.61,0,0,1-.92.84,2.71,2.71,0,0,1-1.3.3,2.76,2.76,0,0,1-1.17-.24,2.31,2.31,0,0,1-.9-.74,3.66,3.66,0,0,1-.57-1.28,7.37,7.37,0,0,1-.2-1.84,7,7,0,0,1,.19-1.67,3.94,3.94,0,0,1,.56-1.3,2.58,2.58,0,0,1,.92-.84,2.71,2.71,0,0,1,1.29-.3,2.76,2.76,0,0,1,1.17.24,2.31,2.31,0,0,1,.9.74,3.7,3.7,0,0,1,.57,1.28A7.36,7.36,0,0,1,106.74,90Zm-4.72,0q0,.19,0,.38t0,.37l3.37-2.5a2.86,2.86,0,0,0-.23-.57,1.81,1.81,0,0,0-.34-.44,1.49,1.49,0,0,0-1.76-.19,1.67,1.67,0,0,0-.58.6,3.3,3.3,0,0,0-.37,1A6.46,6.46,0,0,0,102,89.94Zm3.65.07q0-.21,0-.41t0-.4l-3.37,2.51a3.13,3.13,0,0,0,.23.59,1.78,1.78,0,0,0,.34.46,1.45,1.45,0,0,0,.45.3,1.47,1.47,0,0,0,.58.11,1.45,1.45,0,0,0,.75-.2,1.68,1.68,0,0,0,.58-.6,3.26,3.26,0,0,0,.37-1A6.46,6.46,0,0,0,105.67,90Z"/><path class="cls-4" d="M113.61,90a7.07,7.07,0,0,1-.18,1.67,3.86,3.86,0,0,1-.56,1.29,2.61,2.61,0,0,1-.92.84,2.71,2.71,0,0,1-1.3.3,2.76,2.76,0,0,1-1.17-.24,2.31,2.31,0,0,1-.9-.74,3.66,3.66,0,0,1-.57-1.28,7.37,7.37,0,0,1-.2-1.84A7,7,0,0,1,108,88.3a4,4,0,0,1,.56-1.3,2.58,2.58,0,0,1,.92-.84,2.71,2.71,0,0,1,1.29-.3,2.76,2.76,0,0,1,1.17.24,2.31,2.31,0,0,1,.9.74,3.7,3.7,0,0,1,.57,1.28A7.37,7.37,0,0,1,113.61,90Zm-4.72,0q0,.19,0,.38t0,.37l3.37-2.5a2.86,2.86,0,0,0-.23-.57,1.81,1.81,0,0,0-.34-.44A1.49,1.49,0,0,0,110,87a1.67,1.67,0,0,0-.58.6,3.3,3.3,0,0,0-.37,1A6.46,6.46,0,0,0,108.89,89.94Zm3.65.07q0-.21,0-.41t0-.4l-3.37,2.51a3.13,3.13,0,0,0,.23.59,1.78,1.78,0,0,0,.34.46,1.45,1.45,0,0,0,.45.3,1.47,1.47,0,0,0,.58.11,1.45,1.45,0,0,0,.75-.2,1.68,1.68,0,0,0,.58-.6,3.26,3.26,0,0,0,.37-1A6.46,6.46,0,0,0,112.54,90Z"/><path class="cls-4" d="M120.23,94h-5V93h2V87.15l-1.91,1-.39-.9,2.54-1.34h.94v7h1.78Z"/><path class="cls-4" d="M127.1,94h-5V93h2V87.15l-1.91,1-.39-.9,2.54-1.34h.94v7h1.78Z"/><path class="cls-4" d="M134,94h-5V93h2V87.15l-1.91,1-.39-.9,2.54-1.34h.94v7H134Z"/><path class="cls-4" d="M148,90a7.07,7.07,0,0,1-.18,1.67,3.86,3.86,0,0,1-.56,1.29,2.61,2.61,0,0,1-.92.84,2.71,2.71,0,0,1-1.3.3,2.76,2.76,0,0,1-1.17-.24,2.31,2.31,0,0,1-.9-.74,3.66,3.66,0,0,1-.57-1.28,7.37,7.37,0,0,1-.2-1.84,7,7,0,0,1,.19-1.67,3.94,3.94,0,0,1,.56-1.3,2.58,2.58,0,0,1,.92-.84,2.71,2.71,0,0,1,1.29-.3,2.76,2.76,0,0,1,1.17.24,2.31,2.31,0,0,1,.9.74,3.7,3.7,0,0,1,.57,1.28A7.37,7.37,0,0,1,148,90Zm-4.72,0q0,.19,0,.38t0,.37l3.37-2.5a2.85,2.85,0,0,0-.23-.57,1.8,1.8,0,0,0-.34-.44,1.49,1.49,0,0,0-1.76-.19,1.67,1.67,0,0,0-.58.6,3.3,3.3,0,0,0-.37,1A6.45,6.45,0,0,0,143.24,89.94Zm3.65.07q0-.21,0-.41t0-.4l-3.37,2.51a3.13,3.13,0,0,0,.23.59,1.78,1.78,0,0,0,.34.46,1.45,1.45,0,0,0,.45.3,1.47,1.47,0,0,0,.58.11,1.45,1.45,0,0,0,.75-.2,1.68,1.68,0,0,0,.58-.6,3.26,3.26,0,0,0,.37-1A6.46,6.46,0,0,0,146.89,90Z"/><path class="cls-4" d="M154.58,94h-5V93h2.05V87.15l-1.91,1-.39-.9,2.54-1.34h.94v7h1.78Z"/><path class="cls-4" d="M161.45,94h-5V93h2V87.15l-1.91,1-.39-.9,2.54-1.34h.94v7h1.78Z"/><path class="cls-4" d="M168.57,90a7.07,7.07,0,0,1-.18,1.67,3.86,3.86,0,0,1-.56,1.29,2.61,2.61,0,0,1-.92.84,2.71,2.71,0,0,1-1.3.3,2.76,2.76,0,0,1-1.17-.24,2.31,2.31,0,0,1-.9-.74,3.66,3.66,0,0,1-.57-1.28,7.37,7.37,0,0,1-.2-1.84A7,7,0,0,1,163,88.3a3.94,3.94,0,0,1,.56-1.3,2.58,2.58,0,0,1,.92-.84,2.71,2.71,0,0,1,1.29-.3,2.76,2.76,0,0,1,1.17.24,2.31,2.31,0,0,1,.9.74,3.7,3.7,0,0,1,.57,1.28A7.37,7.37,0,0,1,168.57,90Zm-4.72,0q0,.19,0,.38t0,.37l3.37-2.5a2.86,2.86,0,0,0-.23-.57,1.81,1.81,0,0,0-.34-.44,1.49,1.49,0,0,0-1.76-.19,1.67,1.67,0,0,0-.58.6,3.3,3.3,0,0,0-.37,1A6.46,6.46,0,0,0,163.85,89.94Zm3.65.07q0-.21,0-.41t0-.4l-3.37,2.51a3.13,3.13,0,0,0,.23.59,1.78,1.78,0,0,0,.34.46,1.45,1.45,0,0,0,.45.3,1.47,1.47,0,0,0,.58.11,1.45,1.45,0,0,0,.75-.2,1.68,1.68,0,0,0,.58-.6,3.26,3.26,0,0,0,.37-1A6.46,6.46,0,0,0,167.5,90Z"/><path class="cls-4" d="M182.06,94h-5V93h2V87.15l-1.91,1-.39-.9,2.54-1.34h.94v7h1.78Z"/><path class="cls-4" d="M189.18,90a7.07,7.07,0,0,1-.18,1.67,3.86,3.86,0,0,1-.56,1.29,2.61,2.61,0,0,1-.92.84,2.71,2.71,0,0,1-1.3.3,2.76,2.76,0,0,1-1.17-.24,2.31,2.31,0,0,1-.9-.74,3.66,3.66,0,0,1-.57-1.28,7.36,7.36,0,0,1-.2-1.84,7,7,0,0,1,.19-1.67,3.94,3.94,0,0,1,.56-1.3,2.58,2.58,0,0,1,.92-.84,2.71,2.71,0,0,1,1.29-.3,2.76,2.76,0,0,1,1.17.24,2.31,2.31,0,0,1,.9.74,3.7,3.7,0,0,1,.57,1.28A7.37,7.37,0,0,1,189.18,90Zm-4.72,0q0,.19,0,.38t0,.37l3.37-2.5a2.85,2.85,0,0,0-.23-.57,1.8,1.8,0,0,0-.34-.44,1.49,1.49,0,0,0-1.76-.19,1.67,1.67,0,0,0-.58.6,3.3,3.3,0,0,0-.37,1A6.46,6.46,0,0,0,184.46,89.94Zm3.65.07q0-.21,0-.41t0-.4l-3.37,2.51a3.13,3.13,0,0,0,.23.59,1.79,1.79,0,0,0,.34.46,1.45,1.45,0,0,0,.45.3,1.47,1.47,0,0,0,.58.11A1.45,1.45,0,0,0,187,93a1.68,1.68,0,0,0,.58-.6,3.25,3.25,0,0,0,.37-1A6.46,6.46,0,0,0,188.11,90Z"/><path class="cls-4" d="M202.67,94h-5V93h2.05V87.15l-1.91,1-.39-.9,2.54-1.34h.94v7h1.78Z"/><path class="cls-4" d="M209.79,90a7.07,7.07,0,0,1-.18,1.67,3.86,3.86,0,0,1-.56,1.29,2.61,2.61,0,0,1-.92.84,2.71,2.71,0,0,1-1.3.3,2.76,2.76,0,0,1-1.17-.24,2.31,2.31,0,0,1-.9-.74,3.66,3.66,0,0,1-.57-1.28A7.37,7.37,0,0,1,204,90a7,7,0,0,1,.19-1.67,3.94,3.94,0,0,1,.56-1.3,2.58,2.58,0,0,1,.92-.84,2.71,2.71,0,0,1,1.29-.3,2.76,2.76,0,0,1,1.17.24,2.31,2.31,0,0,1,.9.74,3.7,3.7,0,0,1,.57,1.28A7.36,7.36,0,0,1,209.79,90Zm-4.72,0q0,.19,0,.38t0,.37l3.37-2.5a2.86,2.86,0,0,0-.23-.57,1.8,1.8,0,0,0-.34-.44,1.49,1.49,0,0,0-1.76-.19,1.67,1.67,0,0,0-.58.6,3.3,3.3,0,0,0-.37,1A6.46,6.46,0,0,0,205.07,89.94Zm3.65.07q0-.21,0-.41t0-.4l-3.37,2.51a3.13,3.13,0,0,0,.23.59,1.78,1.78,0,0,0,.34.46,1.45,1.45,0,0,0,.45.3,1.47,1.47,0,0,0,.58.11,1.45,1.45,0,0,0,.75-.2,1.68,1.68,0,0,0,.58-.6,3.26,3.26,0,0,0,.37-1A6.46,6.46,0,0,0,208.72,90Z"/><path class="cls-4" d="M216.41,94h-5V93h2V87.15l-1.91,1-.39-.9,2.54-1.34h.94v7h1.78Z"/><path class="cls-4" d="M223.53,90a7.07,7.07,0,0,1-.18,1.67,3.86,3.86,0,0,1-.56,1.29,2.61,2.61,0,0,1-.92.84,2.7,2.7,0,0,1-1.3.3,2.76,2.76,0,0,1-1.17-.24,2.31,2.31,0,0,1-.9-.74,3.66,3.66,0,0,1-.57-1.28,7.37,7.37,0,0,1-.2-1.84,7,7,0,0,1,.19-1.67,3.94,3.94,0,0,1,.56-1.3,2.58,2.58,0,0,1,.92-.84,2.71,2.71,0,0,1,1.29-.3,2.76,2.76,0,0,1,1.17.24,2.3,2.3,0,0,1,.9.74,3.69,3.69,0,0,1,.57,1.28A7.37,7.37,0,0,1,223.53,90Zm-4.72,0q0,.19,0,.38t0,.37l3.37-2.5a2.84,2.84,0,0,0-.23-.57,1.81,1.81,0,0,0-.34-.44,1.5,1.5,0,0,0-1.76-.19,1.68,1.68,0,0,0-.58.6,3.3,3.3,0,0,0-.37,1A6.46,6.46,0,0,0,218.81,89.94Zm3.65.07q0-.21,0-.41t0-.4L219,91.71a3.13,3.13,0,0,0,.23.59,1.78,1.78,0,0,0,.34.46,1.45,1.45,0,0,0,.45.3,1.47,1.47,0,0,0,.58.11,1.45,1.45,0,0,0,.75-.2,1.68,1.68,0,0,0,.58-.6,3.26,3.26,0,0,0,.37-1A6.47,6.47,0,0,0,222.46,90Z"/><path class="cls-4" d="M230.15,94h-5V93h2.05V87.15l-1.91,1-.39-.9,2.54-1.34h.94v7h1.78Z"/><path class="cls-4" d="M237.27,90a7.07,7.07,0,0,1-.18,1.67,3.86,3.86,0,0,1-.56,1.29,2.61,2.61,0,0,1-.92.84,2.7,2.7,0,0,1-1.3.3,2.75,2.75,0,0,1-1.16-.24,2.31,2.31,0,0,1-.9-.74,3.67,3.67,0,0,1-.57-1.28,7.37,7.37,0,0,1-.2-1.84,7,7,0,0,1,.19-1.67,3.94,3.94,0,0,1,.55-1.3,2.58,2.58,0,0,1,.92-.84,2.71,2.71,0,0,1,1.29-.3,2.76,2.76,0,0,1,1.17.24,2.3,2.3,0,0,1,.9.74,3.69,3.69,0,0,1,.57,1.28A7.36,7.36,0,0,1,237.27,90Zm-4.72,0q0,.19,0,.38t0,.37l3.37-2.5a2.85,2.85,0,0,0-.23-.57,1.8,1.8,0,0,0-.34-.44,1.49,1.49,0,0,0-1.76-.19,1.68,1.68,0,0,0-.58.6,3.3,3.3,0,0,0-.37,1A6.46,6.46,0,0,0,232.55,89.94Zm3.65.07q0-.21,0-.41t0-.4l-3.37,2.51a3.15,3.15,0,0,0,.23.59,1.78,1.78,0,0,0,.34.46,1.45,1.45,0,0,0,.45.3,1.47,1.47,0,0,0,.58.11,1.45,1.45,0,0,0,.75-.2,1.68,1.68,0,0,0,.58-.6,3.27,3.27,0,0,0,.37-1A6.47,6.47,0,0,0,236.2,90Z"/><path class="cls-4" d="M65.53,105a7.07,7.07,0,0,1-.18,1.67,3.86,3.86,0,0,1-.56,1.29,2.61,2.61,0,0,1-.92.84,2.71,2.71,0,0,1-1.3.3,2.76,2.76,0,0,1-1.17-.24,2.31,2.31,0,0,1-.9-.74,3.66,3.66,0,0,1-.57-1.28,7.37,7.37,0,0,1-.2-1.84,7,7,0,0,1,.19-1.67,4,4,0,0,1,.56-1.3,2.58,2.58,0,0,1,.92-.84,2.71,2.71,0,0,1,1.29-.3,2.76,2.76,0,0,1,1.17.24,2.31,2.31,0,0,1,.9.74,3.7,3.7,0,0,1,.57,1.28A7.37,7.37,0,0,1,65.53,105Zm-4.72,0q0,.19,0,.38t0,.37l3.37-2.5a2.86,2.86,0,0,0-.23-.57,1.81,1.81,0,0,0-.34-.44,1.49,1.49,0,0,0-1.76-.19,1.68,1.68,0,0,0-.58.6,3.3,3.3,0,0,0-.37,1A6.46,6.46,0,0,0,60.8,104.93Zm3.65.07q0-.21,0-.41t0-.4L61,106.7a3.12,3.12,0,0,0,.23.59,1.78,1.78,0,0,0,.34.46,1.45,1.45,0,0,0,.45.3,1.47,1.47,0,0,0,.58.11,1.45,1.45,0,0,0,.75-.2,1.68,1.68,0,0,0,.58-.6,3.26,3.26,0,0,0,.37-1A6.46,6.46,0,0,0,64.45,105Z"/><path class="cls-4" d="M72.15,109h-5v-1h2v-5.82l-1.91,1-.39-.9,2.54-1.34h.94v7h1.78Z"/><path class="cls-4" d="M79.27,105a7.06,7.06,0,0,1-.18,1.67,3.86,3.86,0,0,1-.56,1.29,2.61,2.61,0,0,1-.92.84,2.71,2.71,0,0,1-1.3.3,2.76,2.76,0,0,1-1.17-.24,2.31,2.31,0,0,1-.9-.74,3.66,3.66,0,0,1-.57-1.28,7.37,7.37,0,0,1-.2-1.84,7,7,0,0,1,.19-1.67,3.94,3.94,0,0,1,.56-1.3,2.58,2.58,0,0,1,.92-.84,2.71,2.71,0,0,1,1.29-.3,2.76,2.76,0,0,1,1.17.24,2.31,2.31,0,0,1,.9.74,3.7,3.7,0,0,1,.57,1.28A7.37,7.37,0,0,1,79.27,105Zm-4.72,0q0,.19,0,.38t0,.37l3.37-2.5a2.85,2.85,0,0,0-.23-.57,1.8,1.8,0,0,0-.34-.44,1.49,1.49,0,0,0-1.76-.19,1.68,1.68,0,0,0-.58.6,3.3,3.3,0,0,0-.37,1A6.46,6.46,0,0,0,74.54,104.93Zm3.65.07q0-.21,0-.41t0-.4l-3.37,2.51a3.13,3.13,0,0,0,.23.59,1.79,1.79,0,0,0,.34.46,1.45,1.45,0,0,0,.45.3,1.47,1.47,0,0,0,.58.11,1.45,1.45,0,0,0,.75-.2,1.68,1.68,0,0,0,.58-.6,3.26,3.26,0,0,0,.37-1A6.46,6.46,0,0,0,78.19,105Z"/><path class="cls-4" d="M85.89,109h-5v-1h2v-5.82l-1.91,1-.39-.9,2.54-1.34h.94v7h1.78Z"/><path class="cls-4" d="M99.63,109h-5v-1h2.05v-5.82l-1.91,1-.39-.9,2.54-1.34h.94v7h1.78Z"/><path class="cls-4" d="M106.74,105a7.07,7.07,0,0,1-.18,1.67,3.86,3.86,0,0,1-.56,1.29,2.61,2.61,0,0,1-.92.84,2.71,2.71,0,0,1-1.3.3,2.76,2.76,0,0,1-1.17-.24,2.31,2.31,0,0,1-.9-.74,3.66,3.66,0,0,1-.57-1.28,7.37,7.37,0,0,1-.2-1.84,7,7,0,0,1,.19-1.67,4,4,0,0,1,.56-1.3,2.58,2.58,0,0,1,.92-.84,2.71,2.71,0,0,1,1.29-.3,2.76,2.76,0,0,1,1.17.24,2.31,2.31,0,0,1,.9.74,3.7,3.7,0,0,1,.57,1.28A7.36,7.36,0,0,1,106.74,105Zm-4.72,0q0,.19,0,.38t0,.37l3.37-2.5a2.86,2.86,0,0,0-.23-.57,1.81,1.81,0,0,0-.34-.44,1.49,1.49,0,0,0-1.76-.19,1.68,1.68,0,0,0-.58.6,3.3,3.3,0,0,0-.37,1A6.46,6.46,0,0,0,102,104.93Zm3.65.07q0-.21,0-.41t0-.4l-3.37,2.51a3.12,3.12,0,0,0,.23.59,1.78,1.78,0,0,0,.34.46,1.45,1.45,0,0,0,.45.3,1.47,1.47,0,0,0,.58.11,1.45,1.45,0,0,0,.75-.2,1.68,1.68,0,0,0,.58-.6,3.26,3.26,0,0,0,.37-1A6.46,6.46,0,0,0,105.67,105Z"/><path class="cls-4" d="M113.36,109h-5v-1h2v-5.82l-1.91,1-.39-.9,2.54-1.34h.94v7h1.78Z"/><path class="cls-4" d="M120.48,105a7.07,7.07,0,0,1-.18,1.67,3.87,3.87,0,0,1-.56,1.29,2.61,2.61,0,0,1-.92.84,2.71,2.71,0,0,1-1.3.3,2.76,2.76,0,0,1-1.17-.24,2.31,2.31,0,0,1-.9-.74,3.66,3.66,0,0,1-.57-1.28,7.37,7.37,0,0,1-.2-1.84,7,7,0,0,1,.19-1.67,4,4,0,0,1,.56-1.3,2.58,2.58,0,0,1,.92-.84,2.71,2.71,0,0,1,1.29-.3,2.76,2.76,0,0,1,1.17.24,2.31,2.31,0,0,1,.9.74,3.7,3.7,0,0,1,.57,1.28A7.37,7.37,0,0,1,120.48,105Zm-4.72,0q0,.19,0,.38t0,.37l3.37-2.5a2.86,2.86,0,0,0-.23-.57,1.81,1.81,0,0,0-.34-.44,1.49,1.49,0,0,0-1.76-.19,1.68,1.68,0,0,0-.58.6,3.3,3.3,0,0,0-.37,1A6.46,6.46,0,0,0,115.76,104.93Zm3.65.07q0-.21,0-.41t0-.4L116,106.7a3.12,3.12,0,0,0,.23.59,1.78,1.78,0,0,0,.34.46,1.45,1.45,0,0,0,.45.3,1.47,1.47,0,0,0,.58.11,1.45,1.45,0,0,0,.75-.2,1.68,1.68,0,0,0,.58-.6,3.26,3.26,0,0,0,.37-1A6.46,6.46,0,0,0,119.41,105Z"/><path class="cls-4" d="M127.1,109h-5v-1h2v-5.82l-1.91,1-.39-.9,2.54-1.34h.94v7h1.78Z"/><path class="cls-4" d="M134.22,105a7.06,7.06,0,0,1-.18,1.67,3.86,3.86,0,0,1-.56,1.29,2.61,2.61,0,0,1-.92.84,2.71,2.71,0,0,1-1.3.3,2.76,2.76,0,0,1-1.17-.24,2.31,2.31,0,0,1-.9-.74,3.66,3.66,0,0,1-.57-1.28,7.37,7.37,0,0,1-.2-1.84,7,7,0,0,1,.19-1.67,3.94,3.94,0,0,1,.56-1.3,2.58,2.58,0,0,1,.92-.84,2.71,2.71,0,0,1,1.29-.3,2.76,2.76,0,0,1,1.17.24,2.31,2.31,0,0,1,.9.74,3.7,3.7,0,0,1,.57,1.28A7.37,7.37,0,0,1,134.22,105Zm-4.72,0q0,.19,0,.38t0,.37l3.37-2.5a2.85,2.85,0,0,0-.23-.57,1.8,1.8,0,0,0-.34-.44,1.49,1.49,0,0,0-1.76-.19,1.68,1.68,0,0,0-.58.6,3.3,3.3,0,0,0-.37,1A6.46,6.46,0,0,0,129.5,104.93Zm3.65.07q0-.21,0-.41t0-.4l-3.37,2.51a3.13,3.13,0,0,0,.23.59,1.79,1.79,0,0,0,.34.46,1.45,1.45,0,0,0,.45.3,1.47,1.47,0,0,0,.58.11,1.45,1.45,0,0,0,.75-.2,1.68,1.68,0,0,0,.58-.6,3.26,3.26,0,0,0,.37-1A6.46,6.46,0,0,0,133.15,105Z"/><path class="cls-4" d="M154.83,105a7.07,7.07,0,0,1-.18,1.67,3.86,3.86,0,0,1-.56,1.29,2.61,2.61,0,0,1-.92.84,2.71,2.71,0,0,1-1.3.3,2.76,2.76,0,0,1-1.17-.24,2.31,2.31,0,0,1-.9-.74,3.66,3.66,0,0,1-.57-1.28A7.37,7.37,0,0,1,149,105a7,7,0,0,1,.19-1.67,4,4,0,0,1,.56-1.3,2.58,2.58,0,0,1,.92-.84,2.71,2.71,0,0,1,1.29-.3,2.76,2.76,0,0,1,1.17.24,2.31,2.31,0,0,1,.9.74,3.7,3.7,0,0,1,.57,1.28A7.37,7.37,0,0,1,154.83,105Zm-4.72,0q0,.19,0,.38t0,.37l3.37-2.5a2.86,2.86,0,0,0-.23-.57,1.8,1.8,0,0,0-.34-.44,1.49,1.49,0,0,0-1.76-.19,1.68,1.68,0,0,0-.58.6,3.31,3.31,0,0,0-.37,1A6.46,6.46,0,0,0,150.11,104.93Zm3.65.07q0-.21,0-.41t0-.4l-3.37,2.51a3.12,3.12,0,0,0,.23.59,1.78,1.78,0,0,0,.34.46,1.45,1.45,0,0,0,.45.3,1.47,1.47,0,0,0,.58.11,1.45,1.45,0,0,0,.75-.2,1.68,1.68,0,0,0,.58-.6,3.26,3.26,0,0,0,.37-1A6.45,6.45,0,0,0,153.76,105Z"/><path class="cls-4" d="M168.32,109h-5v-1h2v-5.82l-1.91,1-.39-.9,2.54-1.34h.94v7h1.78Z"/><path class="cls-4" d="M182.31,105a7.07,7.07,0,0,1-.18,1.67,3.86,3.86,0,0,1-.56,1.29,2.61,2.61,0,0,1-.92.84,2.71,2.71,0,0,1-1.3.3,2.76,2.76,0,0,1-1.17-.24,2.31,2.31,0,0,1-.9-.74,3.66,3.66,0,0,1-.57-1.28,7.37,7.37,0,0,1-.2-1.84,7,7,0,0,1,.19-1.67,4,4,0,0,1,.56-1.3,2.58,2.58,0,0,1,.92-.84,2.71,2.71,0,0,1,1.29-.3,2.76,2.76,0,0,1,1.17.24,2.31,2.31,0,0,1,.9.74,3.7,3.7,0,0,1,.57,1.28A7.37,7.37,0,0,1,182.31,105Zm-4.72,0q0,.19,0,.38t0,.37l3.37-2.5a2.85,2.85,0,0,0-.23-.57,1.8,1.8,0,0,0-.34-.44,1.49,1.49,0,0,0-1.76-.19,1.68,1.68,0,0,0-.58.6,3.3,3.3,0,0,0-.37,1A6.46,6.46,0,0,0,177.59,104.93Zm3.65.07q0-.21,0-.41t0-.4l-3.37,2.51a3.13,3.13,0,0,0,.23.59,1.78,1.78,0,0,0,.34.46,1.45,1.45,0,0,0,.45.3,1.47,1.47,0,0,0,.58.11,1.45,1.45,0,0,0,.75-.2,1.68,1.68,0,0,0,.58-.6,3.25,3.25,0,0,0,.37-1A6.46,6.46,0,0,0,181.24,105Z"/><path class="cls-4" d="M188.93,109h-5v-1h2v-5.82l-1.91,1-.39-.9,2.54-1.34h.94v7h1.78Z"/><path class="cls-4" d="M202.67,109h-5v-1h2.05v-5.82l-1.91,1-.39-.9,2.54-1.34h.94v7h1.78Z"/><path class="cls-4" d="M209.79,105a7.07,7.07,0,0,1-.18,1.67,3.86,3.86,0,0,1-.56,1.29,2.61,2.61,0,0,1-.92.84,2.71,2.71,0,0,1-1.3.3,2.76,2.76,0,0,1-1.17-.24,2.31,2.31,0,0,1-.9-.74,3.66,3.66,0,0,1-.57-1.28A7.37,7.37,0,0,1,204,105a7,7,0,0,1,.19-1.67,4,4,0,0,1,.56-1.3,2.58,2.58,0,0,1,.92-.84,2.71,2.71,0,0,1,1.29-.3,2.76,2.76,0,0,1,1.17.24,2.31,2.31,0,0,1,.9.74,3.7,3.7,0,0,1,.57,1.28A7.36,7.36,0,0,1,209.79,105Zm-4.72,0q0,.19,0,.38t0,.37l3.37-2.5a2.86,2.86,0,0,0-.23-.57,1.8,1.8,0,0,0-.34-.44,1.49,1.49,0,0,0-1.76-.19,1.68,1.68,0,0,0-.58.6,3.3,3.3,0,0,0-.37,1A6.46,6.46,0,0,0,205.07,104.93Zm3.65.07q0-.21,0-.41t0-.4l-3.37,2.51a3.12,3.12,0,0,0,.23.59,1.78,1.78,0,0,0,.34.46,1.45,1.45,0,0,0,.45.3,1.47,1.47,0,0,0,.58.11,1.45,1.45,0,0,0,.75-.2,1.68,1.68,0,0,0,.58-.6,3.26,3.26,0,0,0,.37-1A6.46,6.46,0,0,0,208.72,105Z"/><path class="cls-4" d="M216.66,105a7.07,7.07,0,0,1-.18,1.67,3.86,3.86,0,0,1-.56,1.29,2.61,2.61,0,0,1-.92.84,2.71,2.71,0,0,1-1.3.3,2.76,2.76,0,0,1-1.17-.24,2.31,2.31,0,0,1-.9-.74,3.66,3.66,0,0,1-.57-1.28,7.37,7.37,0,0,1-.2-1.84,7,7,0,0,1,.19-1.67,4,4,0,0,1,.56-1.3,2.58,2.58,0,0,1,.92-.84,2.71,2.71,0,0,1,1.29-.3,2.76,2.76,0,0,1,1.17.24,2.31,2.31,0,0,1,.9.74,3.7,3.7,0,0,1,.57,1.28A7.37,7.37,0,0,1,216.66,105Zm-4.72,0q0,.19,0,.38t0,.37l3.37-2.5a2.86,2.86,0,0,0-.23-.57,1.81,1.81,0,0,0-.34-.44A1.49,1.49,0,0,0,213,102a1.68,1.68,0,0,0-.58.6,3.3,3.3,0,0,0-.37,1A6.46,6.46,0,0,0,211.94,104.93Zm3.65.07q0-.21,0-.41t0-.4l-3.37,2.51a3.13,3.13,0,0,0,.23.59,1.78,1.78,0,0,0,.34.46,1.45,1.45,0,0,0,.45.3,1.47,1.47,0,0,0,.58.11,1.45,1.45,0,0,0,.75-.2,1.68,1.68,0,0,0,.58-.6,3.26,3.26,0,0,0,.37-1A6.46,6.46,0,0,0,215.59,105Z"/><path class="cls-4" d="M223.28,109h-5v-1h2v-5.82l-1.91,1-.39-.9,2.54-1.34h.94v7h1.78Z"/><path class="cls-4" d="M230.4,105a7.07,7.07,0,0,1-.18,1.67,3.86,3.86,0,0,1-.56,1.29,2.61,2.61,0,0,1-.92.84,2.71,2.71,0,0,1-1.3.3,2.76,2.76,0,0,1-1.17-.24,2.31,2.31,0,0,1-.9-.74,3.66,3.66,0,0,1-.57-1.28,7.37,7.37,0,0,1-.2-1.84,7,7,0,0,1,.19-1.67,4,4,0,0,1,.55-1.3,2.58,2.58,0,0,1,.92-.84,2.71,2.71,0,0,1,1.29-.3,2.76,2.76,0,0,1,1.17.24,2.3,2.3,0,0,1,.9.74,3.69,3.69,0,0,1,.57,1.28A7.36,7.36,0,0,1,230.4,105Zm-4.72,0q0,.19,0,.38t0,.37l3.37-2.5a2.83,2.83,0,0,0-.23-.57,1.8,1.8,0,0,0-.34-.44,1.5,1.5,0,0,0-1.76-.19,1.68,1.68,0,0,0-.58.6,3.3,3.3,0,0,0-.37,1A6.45,6.45,0,0,0,225.68,104.93Zm3.65.07q0-.21,0-.41t0-.4l-3.37,2.51a3.12,3.12,0,0,0,.23.59,1.78,1.78,0,0,0,.34.46,1.51,1.51,0,0,0,1.78.2,1.68,1.68,0,0,0,.58-.6,3.25,3.25,0,0,0,.37-1A6.45,6.45,0,0,0,229.33,105Z"/><path class="cls-4" d="M237.27,105a7.07,7.07,0,0,1-.18,1.67,3.86,3.86,0,0,1-.56,1.29,2.61,2.61,0,0,1-.92.84,2.7,2.7,0,0,1-1.3.3,2.76,2.76,0,0,1-1.16-.24,2.31,2.31,0,0,1-.9-.74,3.67,3.67,0,0,1-.57-1.28,7.37,7.37,0,0,1-.2-1.84,7,7,0,0,1,.19-1.67,3.94,3.94,0,0,1,.55-1.3,2.58,2.58,0,0,1,.92-.84,2.71,2.71,0,0,1,1.29-.3,2.76,2.76,0,0,1,1.17.24,2.3,2.3,0,0,1,.9.74,3.69,3.69,0,0,1,.57,1.28A7.36,7.36,0,0,1,237.27,105Zm-4.72,0q0,.19,0,.38t0,.37l3.37-2.5a2.85,2.85,0,0,0-.23-.57,1.8,1.8,0,0,0-.34-.44,1.49,1.49,0,0,0-1.76-.19,1.68,1.68,0,0,0-.58.6,3.3,3.3,0,0,0-.37,1A6.46,6.46,0,0,0,232.55,104.93Zm3.65.07q0-.21,0-.41t0-.4l-3.37,2.51a3.14,3.14,0,0,0,.23.59,1.78,1.78,0,0,0,.34.46,1.45,1.45,0,0,0,.45.3,1.47,1.47,0,0,0,.58.11,1.45,1.45,0,0,0,.75-.2,1.68,1.68,0,0,0,.58-.6,3.26,3.26,0,0,0,.37-1A6.47,6.47,0,0,0,236.2,105Z"/><path class="cls-4" d="M65.53,120a7.07,7.07,0,0,1-.18,1.67,3.86,3.86,0,0,1-.56,1.29,2.61,2.61,0,0,1-.92.84,2.71,2.71,0,0,1-1.3.3,2.76,2.76,0,0,1-1.17-.24,2.31,2.31,0,0,1-.9-.74,3.66,3.66,0,0,1-.57-1.28,7.37,7.37,0,0,1-.2-1.84,7,7,0,0,1,.19-1.67,4,4,0,0,1,.56-1.3,2.58,2.58,0,0,1,.92-.84,2.71,2.71,0,0,1,1.29-.3,2.76,2.76,0,0,1,1.17.24,2.31,2.31,0,0,1,.9.74,3.7,3.7,0,0,1,.57,1.28A7.37,7.37,0,0,1,65.53,120Zm-4.72,0q0,.19,0,.38t0,.37l3.37-2.5a2.86,2.86,0,0,0-.23-.57,1.81,1.81,0,0,0-.34-.44,1.5,1.5,0,0,0-1.76-.19,1.68,1.68,0,0,0-.58.6,3.3,3.3,0,0,0-.37,1A6.46,6.46,0,0,0,60.8,119.93Zm3.65.07q0-.21,0-.41t0-.4L61,121.69a3.12,3.12,0,0,0,.23.59,1.78,1.78,0,0,0,.34.46,1.46,1.46,0,0,0,.45.3,1.47,1.47,0,0,0,.58.11,1.45,1.45,0,0,0,.75-.2,1.68,1.68,0,0,0,.58-.6,3.26,3.26,0,0,0,.37-1A6.46,6.46,0,0,0,64.45,120Z"/><path class="cls-4" d="M72.15,123.95h-5v-1h2v-5.82l-1.91,1-.39-.9,2.54-1.34h.94v7h1.78Z"/><path class="cls-4" d="M79.27,120a7.06,7.06,0,0,1-.18,1.67,3.86,3.86,0,0,1-.56,1.29,2.61,2.61,0,0,1-.92.84,2.71,2.71,0,0,1-1.3.3,2.76,2.76,0,0,1-1.17-.24,2.31,2.31,0,0,1-.9-.74,3.66,3.66,0,0,1-.57-1.28,7.37,7.37,0,0,1-.2-1.84,7,7,0,0,1,.19-1.67,3.94,3.94,0,0,1,.56-1.3,2.58,2.58,0,0,1,.92-.84,2.71,2.71,0,0,1,1.29-.3,2.76,2.76,0,0,1,1.17.24,2.31,2.31,0,0,1,.9.74,3.7,3.7,0,0,1,.57,1.28A7.37,7.37,0,0,1,79.27,120Zm-4.72,0q0,.19,0,.38t0,.37l3.37-2.5a2.85,2.85,0,0,0-.23-.57,1.8,1.8,0,0,0-.34-.44,1.5,1.5,0,0,0-1.76-.19,1.68,1.68,0,0,0-.58.6,3.3,3.3,0,0,0-.37,1A6.47,6.47,0,0,0,74.54,119.93Zm3.65.07q0-.21,0-.41t0-.4l-3.37,2.51a3.13,3.13,0,0,0,.23.59,1.79,1.79,0,0,0,.34.46,1.51,1.51,0,0,0,1.78.2,1.68,1.68,0,0,0,.58-.6,3.26,3.26,0,0,0,.37-1A6.46,6.46,0,0,0,78.19,120Z"/><path class="cls-4" d="M85.89,123.95h-5v-1h2v-5.82l-1.91,1-.39-.9,2.54-1.34h.94v7h1.78Z"/><path class="cls-4" d="M99.63,123.95h-5v-1h2.05v-5.82l-1.91,1-.39-.9,2.54-1.34h.94v7h1.78Z"/><path class="cls-4" d="M106.49,123.95h-5v-1h2.05v-5.82l-1.91,1-.39-.9,2.54-1.34h.94v7h1.78Z"/><path class="cls-4" d="M120.23,123.95h-5v-1h2v-5.82l-1.91,1-.39-.9,2.54-1.34h.94v7h1.78Z"/><path class="cls-4" d="M127.35,120a7.07,7.07,0,0,1-.18,1.67,3.87,3.87,0,0,1-.56,1.29,2.61,2.61,0,0,1-.92.84,2.71,2.71,0,0,1-1.3.3,2.76,2.76,0,0,1-1.17-.24,2.31,2.31,0,0,1-.9-.74,3.66,3.66,0,0,1-.57-1.28,7.37,7.37,0,0,1-.2-1.84,7,7,0,0,1,.19-1.67,4,4,0,0,1,.56-1.3,2.58,2.58,0,0,1,.92-.84,2.71,2.71,0,0,1,1.29-.3,2.76,2.76,0,0,1,1.17.24,2.31,2.31,0,0,1,.9.74,3.7,3.7,0,0,1,.57,1.28A7.37,7.37,0,0,1,127.35,120Zm-4.72,0q0,.19,0,.38t0,.37l3.37-2.5a2.86,2.86,0,0,0-.23-.57,1.81,1.81,0,0,0-.34-.44,1.5,1.5,0,0,0-1.76-.19,1.68,1.68,0,0,0-.58.6,3.3,3.3,0,0,0-.37,1A6.46,6.46,0,0,0,122.63,119.93Zm3.65.07q0-.21,0-.41t0-.4l-3.37,2.51a3.13,3.13,0,0,0,.23.59,1.79,1.79,0,0,0,.34.46,1.51,1.51,0,0,0,1.78.2,1.68,1.68,0,0,0,.58-.6,3.26,3.26,0,0,0,.37-1A6.46,6.46,0,0,0,126.28,120Z"/><path class="cls-4" d="M134,123.95h-5v-1h2v-5.82l-1.91,1-.39-.9,2.54-1.34h.94v7H134Z"/><path class="cls-4" d="M154.83,120a7.07,7.07,0,0,1-.18,1.67,3.86,3.86,0,0,1-.56,1.29,2.61,2.61,0,0,1-.92.84,2.71,2.71,0,0,1-1.3.3,2.76,2.76,0,0,1-1.17-.24,2.31,2.31,0,0,1-.9-.74,3.66,3.66,0,0,1-.57-1.28A7.37,7.37,0,0,1,149,120a7,7,0,0,1,.19-1.67,4,4,0,0,1,.56-1.3,2.58,2.58,0,0,1,.92-.84,2.71,2.71,0,0,1,1.29-.3,2.76,2.76,0,0,1,1.17.24,2.31,2.31,0,0,1,.9.74,3.7,3.7,0,0,1,.57,1.28A7.37,7.37,0,0,1,154.83,120Zm-4.72,0q0,.19,0,.38t0,.37l3.37-2.5a2.86,2.86,0,0,0-.23-.57,1.8,1.8,0,0,0-.34-.44,1.5,1.5,0,0,0-1.76-.19,1.68,1.68,0,0,0-.58.6,3.31,3.31,0,0,0-.37,1A6.47,6.47,0,0,0,150.11,119.93Zm3.65.07q0-.21,0-.41t0-.4l-3.37,2.51a3.12,3.12,0,0,0,.23.59,1.79,1.79,0,0,0,.34.46,1.46,1.46,0,0,0,.45.3,1.47,1.47,0,0,0,.58.11,1.45,1.45,0,0,0,.75-.2,1.68,1.68,0,0,0,.58-.6,3.26,3.26,0,0,0,.37-1A6.45,6.45,0,0,0,153.76,120Z"/><path class="cls-4" d="M168.57,120a7.07,7.07,0,0,1-.18,1.67,3.86,3.86,0,0,1-.56,1.29,2.61,2.61,0,0,1-.92.84,2.71,2.71,0,0,1-1.3.3,2.76,2.76,0,0,1-1.17-.24,2.31,2.31,0,0,1-.9-.74,3.66,3.66,0,0,1-.57-1.28,7.37,7.37,0,0,1-.2-1.84,7,7,0,0,1,.19-1.67,4,4,0,0,1,.56-1.3,2.58,2.58,0,0,1,.92-.84,2.71,2.71,0,0,1,1.29-.3,2.76,2.76,0,0,1,1.17.24,2.31,2.31,0,0,1,.9.74,3.7,3.7,0,0,1,.57,1.28A7.37,7.37,0,0,1,168.57,120Zm-4.72,0q0,.19,0,.38t0,.37l3.37-2.5a2.86,2.86,0,0,0-.23-.57,1.81,1.81,0,0,0-.34-.44,1.5,1.5,0,0,0-1.76-.19,1.68,1.68,0,0,0-.58.6,3.3,3.3,0,0,0-.37,1A6.46,6.46,0,0,0,163.85,119.93Zm3.65.07q0-.21,0-.41t0-.4l-3.37,2.51a3.12,3.12,0,0,0,.23.59,1.78,1.78,0,0,0,.34.46,1.46,1.46,0,0,0,.45.3,1.47,1.47,0,0,0,.58.11,1.45,1.45,0,0,0,.75-.2,1.68,1.68,0,0,0,.58-.6,3.26,3.26,0,0,0,.37-1A6.46,6.46,0,0,0,167.5,120Z"/><path class="cls-4" d="M182.31,120a7.07,7.07,0,0,1-.18,1.67,3.86,3.86,0,0,1-.56,1.29,2.61,2.61,0,0,1-.92.84,2.71,2.71,0,0,1-1.3.3,2.76,2.76,0,0,1-1.17-.24,2.31,2.31,0,0,1-.9-.74,3.66,3.66,0,0,1-.57-1.28,7.37,7.37,0,0,1-.2-1.84,7,7,0,0,1,.19-1.67,4,4,0,0,1,.56-1.3,2.58,2.58,0,0,1,.92-.84,2.71,2.71,0,0,1,1.29-.3,2.76,2.76,0,0,1,1.17.24,2.31,2.31,0,0,1,.9.74,3.7,3.7,0,0,1,.57,1.28A7.37,7.37,0,0,1,182.31,120Zm-4.72,0q0,.19,0,.38t0,.37l3.37-2.5a2.85,2.85,0,0,0-.23-.57,1.8,1.8,0,0,0-.34-.44,1.5,1.5,0,0,0-1.76-.19,1.68,1.68,0,0,0-.58.6,3.3,3.3,0,0,0-.37,1A6.46,6.46,0,0,0,177.59,119.93Zm3.65.07q0-.21,0-.41t0-.4l-3.37,2.51a3.13,3.13,0,0,0,.23.59,1.79,1.79,0,0,0,.34.46,1.51,1.51,0,0,0,1.78.2,1.68,1.68,0,0,0,.58-.6,3.26,3.26,0,0,0,.37-1A6.46,6.46,0,0,0,181.24,120Z"/><path class="cls-4" d="M188.93,123.95h-5v-1h2v-5.82l-1.91,1-.39-.9,2.54-1.34h.94v7h1.78Z"/><path class="cls-4" d="M202.67,123.95h-5v-1h2.05v-5.82l-1.91,1-.39-.9,2.54-1.34h.94v7h1.78Z"/><path class="cls-4" d="M209.79,120a7.07,7.07,0,0,1-.18,1.67,3.86,3.86,0,0,1-.56,1.29,2.61,2.61,0,0,1-.92.84,2.71,2.71,0,0,1-1.3.3,2.76,2.76,0,0,1-1.17-.24,2.31,2.31,0,0,1-.9-.74,3.66,3.66,0,0,1-.57-1.28A7.37,7.37,0,0,1,204,120a7,7,0,0,1,.19-1.67,4,4,0,0,1,.56-1.3,2.58,2.58,0,0,1,.92-.84,2.71,2.71,0,0,1,1.29-.3,2.76,2.76,0,0,1,1.17.24,2.31,2.31,0,0,1,.9.74,3.7,3.7,0,0,1,.57,1.28A7.36,7.36,0,0,1,209.79,120Zm-4.72,0q0,.19,0,.38t0,.37l3.37-2.5a2.86,2.86,0,0,0-.23-.57,1.8,1.8,0,0,0-.34-.44,1.5,1.5,0,0,0-1.76-.19,1.68,1.68,0,0,0-.58.6,3.3,3.3,0,0,0-.37,1A6.46,6.46,0,0,0,205.07,119.93Zm3.65.07q0-.21,0-.41t0-.4l-3.37,2.51a3.12,3.12,0,0,0,.23.59,1.79,1.79,0,0,0,.34.46,1.46,1.46,0,0,0,.45.3,1.47,1.47,0,0,0,.58.11,1.45,1.45,0,0,0,.75-.2,1.68,1.68,0,0,0,.58-.6,3.26,3.26,0,0,0,.37-1A6.46,6.46,0,0,0,208.72,120Z"/><path class="cls-4" d="M230.4,120a7.07,7.07,0,0,1-.18,1.67,3.86,3.86,0,0,1-.56,1.29,2.61,2.61,0,0,1-.92.84,2.71,2.71,0,0,1-1.3.3,2.76,2.76,0,0,1-1.17-.24,2.31,2.31,0,0,1-.9-.74,3.66,3.66,0,0,1-.57-1.28,7.37,7.37,0,0,1-.2-1.84,7,7,0,0,1,.19-1.67,4,4,0,0,1,.55-1.3,2.58,2.58,0,0,1,.92-.84,2.71,2.71,0,0,1,1.29-.3,2.76,2.76,0,0,1,1.17.24,2.3,2.3,0,0,1,.9.74,3.69,3.69,0,0,1,.57,1.28A7.36,7.36,0,0,1,230.4,120Zm-4.72,0q0,.19,0,.38t0,.37l3.37-2.5a2.83,2.83,0,0,0-.23-.57,1.8,1.8,0,0,0-.34-.44,1.5,1.5,0,0,0-1.76-.19,1.68,1.68,0,0,0-.58.6,3.3,3.3,0,0,0-.37,1A6.46,6.46,0,0,0,225.68,119.93Zm3.65.07q0-.21,0-.41t0-.4l-3.37,2.51a3.12,3.12,0,0,0,.23.59,1.79,1.79,0,0,0,.34.46,1.51,1.51,0,0,0,1.78.2,1.68,1.68,0,0,0,.58-.6,3.25,3.25,0,0,0,.37-1A6.45,6.45,0,0,0,229.33,120Z"/><path class="cls-4" d="M237.27,120a7.07,7.07,0,0,1-.18,1.67,3.86,3.86,0,0,1-.56,1.29,2.61,2.61,0,0,1-.92.84,2.7,2.7,0,0,1-1.3.3,2.76,2.76,0,0,1-1.16-.24,2.31,2.31,0,0,1-.9-.74,3.67,3.67,0,0,1-.57-1.28,7.37,7.37,0,0,1-.2-1.84,7,7,0,0,1,.19-1.67,3.94,3.94,0,0,1,.55-1.3,2.58,2.58,0,0,1,.92-.84,2.71,2.71,0,0,1,1.29-.3,2.76,2.76,0,0,1,1.17.24,2.3,2.3,0,0,1,.9.74,3.69,3.69,0,0,1,.57,1.28A7.36,7.36,0,0,1,237.27,120Zm-4.72,0q0,.19,0,.38t0,.37l3.37-2.5a2.85,2.85,0,0,0-.23-.57,1.8,1.8,0,0,0-.34-.44,1.44,1.44,0,0,0-.45-.29,1.54,1.54,0,0,0-1.31.1,1.68,1.68,0,0,0-.58.6,3.3,3.3,0,0,0-.37,1A6.46,6.46,0,0,0,232.55,119.93Zm3.65.07q0-.21,0-.41t0-.4l-3.37,2.51a3.14,3.14,0,0,0,.23.59,1.79,1.79,0,0,0,.34.46,1.45,1.45,0,0,0,.45.3,1.47,1.47,0,0,0,.58.11,1.45,1.45,0,0,0,.75-.2,1.68,1.68,0,0,0,.58-.6,3.27,3.27,0,0,0,.37-1A6.47,6.47,0,0,0,236.2,120Z"/><path class="cls-4" d="M65.53,135a7.08,7.08,0,0,1-.18,1.67,3.87,3.87,0,0,1-.56,1.29,2.61,2.61,0,0,1-.92.84,2.7,2.7,0,0,1-1.3.3,2.76,2.76,0,0,1-1.17-.24,2.31,2.31,0,0,1-.9-.74,3.65,3.65,0,0,1-.57-1.27,7.37,7.37,0,0,1-.2-1.84,7,7,0,0,1,.19-1.67,3.94,3.94,0,0,1,.56-1.3,2.58,2.58,0,0,1,.92-.84,2.71,2.71,0,0,1,1.29-.3,2.76,2.76,0,0,1,1.17.24,2.31,2.31,0,0,1,.9.74,3.69,3.69,0,0,1,.57,1.28A7.37,7.37,0,0,1,65.53,135Zm-4.72,0q0,.19,0,.38t0,.37l3.37-2.49a2.86,2.86,0,0,0-.23-.57,1.81,1.81,0,0,0-.34-.44,1.49,1.49,0,0,0-1.76-.19,1.68,1.68,0,0,0-.58.6,3.3,3.3,0,0,0-.37,1A6.46,6.46,0,0,0,60.8,134.92Zm3.65.07q0-.21,0-.41t0-.4L61,136.69a3.11,3.11,0,0,0,.23.59,1.78,1.78,0,0,0,.34.46,1.51,1.51,0,0,0,1.78.2,1.69,1.69,0,0,0,.58-.6,3.26,3.26,0,0,0,.37-1A6.46,6.46,0,0,0,64.45,135Z"/><path class="cls-4" d="M72.15,138.94h-5v-1h2v-5.82l-1.91,1-.39-.9,2.54-1.34h.94v7h1.78Z"/><path class="cls-4" d="M79.27,135a7.07,7.07,0,0,1-.18,1.67,3.87,3.87,0,0,1-.56,1.29,2.61,2.61,0,0,1-.92.84,2.7,2.7,0,0,1-1.3.3,2.76,2.76,0,0,1-1.17-.24,2.31,2.31,0,0,1-.9-.74,3.65,3.65,0,0,1-.57-1.27,7.37,7.37,0,0,1-.2-1.84,7,7,0,0,1,.19-1.67,3.94,3.94,0,0,1,.56-1.3,2.58,2.58,0,0,1,.92-.84,2.71,2.71,0,0,1,1.29-.3,2.76,2.76,0,0,1,1.17.24,2.31,2.31,0,0,1,.9.74,3.69,3.69,0,0,1,.57,1.28A7.37,7.37,0,0,1,79.27,135Zm-4.72,0q0,.19,0,.38t0,.37l3.37-2.49a2.85,2.85,0,0,0-.23-.57,1.8,1.8,0,0,0-.34-.44,1.5,1.5,0,0,0-1.76-.19,1.68,1.68,0,0,0-.58.6,3.3,3.3,0,0,0-.37,1A6.47,6.47,0,0,0,74.54,134.92Zm3.65.07q0-.21,0-.41t0-.4l-3.37,2.51a3.12,3.12,0,0,0,.23.59,1.79,1.79,0,0,0,.34.46,1.51,1.51,0,0,0,1.78.2,1.69,1.69,0,0,0,.58-.6,3.25,3.25,0,0,0,.37-1A6.47,6.47,0,0,0,78.19,135Z"/><path class="cls-4" d="M85.89,138.94h-5v-1h2v-5.82l-1.91,1-.39-.9,2.54-1.34h.94v7h1.78Z"/><path class="cls-4" d="M99.88,135a7.08,7.08,0,0,1-.18,1.67,3.87,3.87,0,0,1-.56,1.29,2.61,2.61,0,0,1-.92.84,2.7,2.7,0,0,1-1.3.3,2.76,2.76,0,0,1-1.17-.24,2.31,2.31,0,0,1-.9-.74,3.65,3.65,0,0,1-.57-1.27,7.37,7.37,0,0,1-.2-1.84,7,7,0,0,1,.19-1.67,3.94,3.94,0,0,1,.56-1.3,2.58,2.58,0,0,1,.92-.84,2.71,2.71,0,0,1,1.29-.3,2.76,2.76,0,0,1,1.17.24,2.31,2.31,0,0,1,.9.74,3.69,3.69,0,0,1,.57,1.28A7.37,7.37,0,0,1,99.88,135Zm-4.72,0q0,.19,0,.38t0,.37l3.37-2.49a2.86,2.86,0,0,0-.23-.57,1.8,1.8,0,0,0-.34-.44,1.49,1.49,0,0,0-1.76-.19,1.68,1.68,0,0,0-.58.6,3.3,3.3,0,0,0-.37,1A6.46,6.46,0,0,0,95.15,134.92Zm3.65.07q0-.21,0-.41t0-.4l-3.37,2.51a3.11,3.11,0,0,0,.23.59,1.78,1.78,0,0,0,.34.46,1.51,1.51,0,0,0,1.78.2,1.69,1.69,0,0,0,.58-.6,3.26,3.26,0,0,0,.37-1A6.46,6.46,0,0,0,98.8,135Z"/><path class="cls-4" d="M106.49,138.94h-5v-1h2.05v-5.82l-1.91,1-.39-.9,2.54-1.34h.94v7h1.78Z"/><path class="cls-4" d="M120.23,138.94h-5v-1h2v-5.82l-1.91,1-.39-.9,2.54-1.34h.94v7h1.78Z"/><path class="cls-4" d="M127.35,135a7.08,7.08,0,0,1-.18,1.67,3.87,3.87,0,0,1-.56,1.29,2.61,2.61,0,0,1-.92.84,2.7,2.7,0,0,1-1.3.3,2.76,2.76,0,0,1-1.17-.24,2.31,2.31,0,0,1-.9-.74,3.65,3.65,0,0,1-.57-1.27,7.37,7.37,0,0,1-.2-1.84,7,7,0,0,1,.19-1.67,3.94,3.94,0,0,1,.56-1.3,2.58,2.58,0,0,1,.92-.84,2.71,2.71,0,0,1,1.29-.3,2.76,2.76,0,0,1,1.17.24,2.3,2.3,0,0,1,.9.74,3.69,3.69,0,0,1,.57,1.28A7.37,7.37,0,0,1,127.35,135Zm-4.72,0q0,.19,0,.38t0,.37l3.37-2.49a2.86,2.86,0,0,0-.23-.57,1.81,1.81,0,0,0-.34-.44,1.5,1.5,0,0,0-1.76-.19,1.68,1.68,0,0,0-.58.6,3.3,3.3,0,0,0-.37,1A6.46,6.46,0,0,0,122.63,134.92Zm3.65.07q0-.21,0-.41t0-.4l-3.37,2.51a3.12,3.12,0,0,0,.23.59,1.79,1.79,0,0,0,.34.46,1.51,1.51,0,0,0,1.78.2,1.69,1.69,0,0,0,.58-.6,3.25,3.25,0,0,0,.37-1A6.46,6.46,0,0,0,126.28,135Z"/><path class="cls-4" d="M134,138.94h-5v-1h2v-5.82l-1.91,1-.39-.9,2.54-1.34h.94v7H134Z"/><path class="cls-4" d="M154.83,135a7.08,7.08,0,0,1-.18,1.67,3.87,3.87,0,0,1-.56,1.29,2.61,2.61,0,0,1-.92.84,2.7,2.7,0,0,1-1.3.3,2.76,2.76,0,0,1-1.17-.24,2.31,2.31,0,0,1-.9-.74,3.65,3.65,0,0,1-.57-1.27A7.37,7.37,0,0,1,149,135a7,7,0,0,1,.19-1.67,3.94,3.94,0,0,1,.56-1.3,2.58,2.58,0,0,1,.92-.84,2.71,2.71,0,0,1,1.29-.3,2.76,2.76,0,0,1,1.17.24,2.31,2.31,0,0,1,.9.74,3.69,3.69,0,0,1,.57,1.28A7.37,7.37,0,0,1,154.83,135Zm-4.72,0q0,.19,0,.38t0,.37l3.37-2.49a2.86,2.86,0,0,0-.23-.57,1.8,1.8,0,0,0-.34-.44,1.49,1.49,0,0,0-1.76-.19,1.68,1.68,0,0,0-.58.6,3.3,3.3,0,0,0-.37,1A6.47,6.47,0,0,0,150.11,134.92Zm3.65.07q0-.21,0-.41t0-.4l-3.37,2.51a3.11,3.11,0,0,0,.23.59,1.78,1.78,0,0,0,.34.46,1.51,1.51,0,0,0,1.78.2,1.69,1.69,0,0,0,.58-.6,3.26,3.26,0,0,0,.37-1A6.46,6.46,0,0,0,153.76,135Z"/><path class="cls-4" d="M168.57,135a7.08,7.08,0,0,1-.18,1.67,3.87,3.87,0,0,1-.56,1.29,2.61,2.61,0,0,1-.92.84,2.7,2.7,0,0,1-1.3.3,2.76,2.76,0,0,1-1.17-.24,2.31,2.31,0,0,1-.9-.74,3.65,3.65,0,0,1-.57-1.27,7.37,7.37,0,0,1-.2-1.84,7,7,0,0,1,.19-1.67,3.94,3.94,0,0,1,.56-1.3,2.58,2.58,0,0,1,.92-.84,2.71,2.71,0,0,1,1.29-.3,2.76,2.76,0,0,1,1.17.24,2.3,2.3,0,0,1,.9.74,3.69,3.69,0,0,1,.57,1.28A7.37,7.37,0,0,1,168.57,135Zm-4.72,0q0,.19,0,.38t0,.37l3.37-2.49a2.86,2.86,0,0,0-.23-.57,1.81,1.81,0,0,0-.34-.44,1.49,1.49,0,0,0-1.76-.19,1.68,1.68,0,0,0-.58.6,3.3,3.3,0,0,0-.37,1A6.46,6.46,0,0,0,163.85,134.92Zm3.65.07q0-.21,0-.41t0-.4l-3.37,2.51a3.11,3.11,0,0,0,.23.59,1.78,1.78,0,0,0,.34.46,1.51,1.51,0,0,0,1.78.2,1.69,1.69,0,0,0,.58-.6,3.25,3.25,0,0,0,.37-1A6.46,6.46,0,0,0,167.5,135Z"/><path class="cls-4" d="M182.31,135a7.07,7.07,0,0,1-.18,1.67,3.87,3.87,0,0,1-.56,1.29,2.61,2.61,0,0,1-.92.84,2.7,2.7,0,0,1-1.3.3,2.76,2.76,0,0,1-1.17-.24,2.31,2.31,0,0,1-.9-.74,3.65,3.65,0,0,1-.57-1.27,7.37,7.37,0,0,1-.2-1.84,7,7,0,0,1,.19-1.67,3.94,3.94,0,0,1,.56-1.3,2.58,2.58,0,0,1,.92-.84,2.71,2.71,0,0,1,1.29-.3,2.76,2.76,0,0,1,1.17.24,2.3,2.3,0,0,1,.9.74,3.69,3.69,0,0,1,.57,1.28A7.37,7.37,0,0,1,182.31,135Zm-4.72,0q0,.19,0,.38t0,.37l3.37-2.49a2.85,2.85,0,0,0-.23-.57,1.8,1.8,0,0,0-.34-.44,1.5,1.5,0,0,0-1.76-.19,1.68,1.68,0,0,0-.58.6,3.3,3.3,0,0,0-.37,1A6.46,6.46,0,0,0,177.59,134.92Zm3.65.07q0-.21,0-.41t0-.4l-3.37,2.51a3.12,3.12,0,0,0,.23.59,1.78,1.78,0,0,0,.34.46,1.51,1.51,0,0,0,1.78.2,1.69,1.69,0,0,0,.58-.6,3.25,3.25,0,0,0,.37-1A6.47,6.47,0,0,0,181.24,135Z"/><path class="cls-4" d="M188.93,138.94h-5v-1h2v-5.82l-1.91,1-.39-.9,2.54-1.34h.94v7h1.78Z"/><path class="cls-4" d="M202.67,138.94h-5v-1h2.05v-5.82l-1.91,1-.39-.9,2.54-1.34h.94v7h1.78Z"/><path class="cls-4" d="M209.54,138.94h-5v-1h2v-5.82l-1.91,1-.39-.9,2.54-1.34h.94v7h1.78Z"/><path class="cls-4" d="M230.15,138.94h-5v-1h2.05v-5.82l-1.91,1-.39-.9,2.54-1.34h.94v7h1.78Z"/><path class="cls-4" d="M237,138.94h-5v-1h2.05v-5.82l-1.91,1-.39-.9,2.54-1.34h.94v7H237Z"/><path class="cls-4" d="M65.28,153.93h-5v-1h2v-5.82l-1.91,1-.39-.9,2.54-1.34h.94v7h1.78Z"/><path class="cls-4" d="M72.4,150a7.07,7.07,0,0,1-.18,1.67,3.86,3.86,0,0,1-.56,1.29,2.61,2.61,0,0,1-.92.84,2.71,2.71,0,0,1-1.3.3,2.75,2.75,0,0,1-1.17-.24,2.31,2.31,0,0,1-.9-.74,3.66,3.66,0,0,1-.57-1.28,7.36,7.36,0,0,1-.2-1.84,7,7,0,0,1,.19-1.67,4,4,0,0,1,.56-1.3,2.58,2.58,0,0,1,.92-.84,2.71,2.71,0,0,1,1.29-.3,2.76,2.76,0,0,1,1.17.24,2.31,2.31,0,0,1,.9.74,3.7,3.7,0,0,1,.57,1.28A7.37,7.37,0,0,1,72.4,150Zm-4.72,0c0,.13,0,.25,0,.38s0,.25,0,.37l3.37-2.5a2.85,2.85,0,0,0-.23-.57,1.81,1.81,0,0,0-.34-.44,1.44,1.44,0,0,0-.45-.29,1.54,1.54,0,0,0-1.31.1,1.68,1.68,0,0,0-.58.6,3.3,3.3,0,0,0-.37,1A6.46,6.46,0,0,0,67.67,149.91Zm3.65.07c0-.14,0-.28,0-.41s0-.27,0-.4l-3.37,2.51a3.14,3.14,0,0,0,.23.59,1.79,1.79,0,0,0,.34.46,1.46,1.46,0,0,0,.45.3,1.48,1.48,0,0,0,.58.11,1.45,1.45,0,0,0,.75-.2,1.68,1.68,0,0,0,.58-.6,3.26,3.26,0,0,0,.37-1A6.46,6.46,0,0,0,71.32,150Z"/><path class="cls-4" d="M79,153.93H74v-1h2v-5.82l-1.91,1-.39-.9,2.54-1.34h.94v7H79Z"/><path class="cls-4" d="M86.14,150a7.07,7.07,0,0,1-.18,1.67,3.86,3.86,0,0,1-.56,1.29,2.61,2.61,0,0,1-.92.84,2.71,2.71,0,0,1-1.3.3A2.75,2.75,0,0,1,82,153.8a2.31,2.31,0,0,1-.9-.74,3.66,3.66,0,0,1-.57-1.28,7.36,7.36,0,0,1-.2-1.84,7,7,0,0,1,.19-1.67,3.94,3.94,0,0,1,.56-1.3,2.58,2.58,0,0,1,.92-.84,2.71,2.71,0,0,1,1.29-.3,2.76,2.76,0,0,1,1.17.24,2.31,2.31,0,0,1,.9.74,3.7,3.7,0,0,1,.57,1.28A7.37,7.37,0,0,1,86.14,150Zm-4.72,0c0,.13,0,.25,0,.38s0,.25,0,.37l3.37-2.5a2.85,2.85,0,0,0-.23-.57,1.8,1.8,0,0,0-.34-.44,1.44,1.44,0,0,0-.45-.29,1.54,1.54,0,0,0-1.31.1,1.68,1.68,0,0,0-.58.6,3.3,3.3,0,0,0-.37,1A6.46,6.46,0,0,0,81.41,149.91Zm3.65.07c0-.14,0-.28,0-.41s0-.27,0-.4l-3.37,2.51a3.14,3.14,0,0,0,.23.59,1.79,1.79,0,0,0,.34.46,1.46,1.46,0,0,0,.45.3,1.48,1.48,0,0,0,.58.11,1.45,1.45,0,0,0,.75-.2,1.68,1.68,0,0,0,.58-.6,3.26,3.26,0,0,0,.37-1A6.46,6.46,0,0,0,85.06,150Z"/><path class="cls-4" d="M99.63,153.93h-5v-1h2.05v-5.82l-1.91,1-.39-.9,2.54-1.34h.94v7h1.78Z"/><path class="cls-4" d="M106.74,150a7.07,7.07,0,0,1-.18,1.67,3.86,3.86,0,0,1-.56,1.29,2.61,2.61,0,0,1-.92.84,2.71,2.71,0,0,1-1.3.3,2.75,2.75,0,0,1-1.17-.24,2.31,2.31,0,0,1-.9-.74,3.66,3.66,0,0,1-.57-1.28,7.36,7.36,0,0,1-.2-1.84,7,7,0,0,1,.19-1.67,4,4,0,0,1,.56-1.3,2.58,2.58,0,0,1,.92-.84,2.71,2.71,0,0,1,1.29-.3,2.76,2.76,0,0,1,1.17.24,2.31,2.31,0,0,1,.9.74,3.7,3.7,0,0,1,.57,1.28A7.37,7.37,0,0,1,106.74,150Zm-4.72,0c0,.13,0,.25,0,.38s0,.25,0,.37l3.37-2.5a2.85,2.85,0,0,0-.23-.57,1.81,1.81,0,0,0-.34-.44,1.44,1.44,0,0,0-.45-.29,1.54,1.54,0,0,0-1.31.1,1.68,1.68,0,0,0-.58.6,3.3,3.3,0,0,0-.37,1A6.46,6.46,0,0,0,102,149.91Zm3.65.07c0-.14,0-.28,0-.41s0-.27,0-.4l-3.37,2.51a3.13,3.13,0,0,0,.23.59,1.79,1.79,0,0,0,.34.46,1.46,1.46,0,0,0,.45.3,1.48,1.48,0,0,0,.58.11,1.45,1.45,0,0,0,.75-.2,1.68,1.68,0,0,0,.58-.6,3.26,3.26,0,0,0,.37-1A6.46,6.46,0,0,0,105.67,150Z"/><path class="cls-4" d="M127.35,150a7.07,7.07,0,0,1-.18,1.67,3.86,3.86,0,0,1-.56,1.29,2.61,2.61,0,0,1-.92.84,2.71,2.71,0,0,1-1.3.3,2.75,2.75,0,0,1-1.17-.24,2.31,2.31,0,0,1-.9-.74,3.66,3.66,0,0,1-.57-1.28,7.36,7.36,0,0,1-.2-1.84,7,7,0,0,1,.19-1.67,4,4,0,0,1,.56-1.3,2.58,2.58,0,0,1,.92-.84,2.71,2.71,0,0,1,1.29-.3,2.76,2.76,0,0,1,1.17.24,2.31,2.31,0,0,1,.9.74,3.7,3.7,0,0,1,.57,1.28A7.37,7.37,0,0,1,127.35,150Zm-4.72,0c0,.13,0,.25,0,.38s0,.25,0,.37l3.37-2.5a2.85,2.85,0,0,0-.23-.57,1.81,1.81,0,0,0-.34-.44,1.44,1.44,0,0,0-.45-.29,1.54,1.54,0,0,0-1.31.1,1.68,1.68,0,0,0-.58.6,3.3,3.3,0,0,0-.37,1A6.46,6.46,0,0,0,122.63,149.91Zm3.65.07c0-.14,0-.28,0-.41s0-.27,0-.4l-3.37,2.51a3.14,3.14,0,0,0,.23.59,1.79,1.79,0,0,0,.34.46,1.46,1.46,0,0,0,.45.3,1.48,1.48,0,0,0,.58.11,1.45,1.45,0,0,0,.75-.2,1.68,1.68,0,0,0,.58-.6,3.26,3.26,0,0,0,.37-1A6.46,6.46,0,0,0,126.28,150Z"/><path class="cls-4" d="M134,153.93h-5v-1h2v-5.82l-1.91,1-.39-.9,2.54-1.34h.94v7H134Z"/><path class="cls-4" d="M154.83,150a7.07,7.07,0,0,1-.18,1.67,3.86,3.86,0,0,1-.56,1.29,2.61,2.61,0,0,1-.92.84,2.71,2.71,0,0,1-1.3.3,2.75,2.75,0,0,1-1.17-.24,2.31,2.31,0,0,1-.9-.74,3.66,3.66,0,0,1-.57-1.28A7.36,7.36,0,0,1,149,150a7,7,0,0,1,.19-1.67,4,4,0,0,1,.56-1.3,2.58,2.58,0,0,1,.92-.84,2.71,2.71,0,0,1,1.29-.3,2.76,2.76,0,0,1,1.17.24,2.31,2.31,0,0,1,.9.74,3.7,3.7,0,0,1,.57,1.28A7.37,7.37,0,0,1,154.83,150Zm-4.72,0c0,.13,0,.25,0,.38s0,.25,0,.37l3.37-2.5a2.85,2.85,0,0,0-.23-.57,1.8,1.8,0,0,0-.34-.44,1.44,1.44,0,0,0-.45-.29,1.54,1.54,0,0,0-1.31.1,1.68,1.68,0,0,0-.58.6,3.3,3.3,0,0,0-.37,1A6.46,6.46,0,0,0,150.11,149.91Zm3.65.07c0-.14,0-.28,0-.41s0-.27,0-.4l-3.37,2.51a3.13,3.13,0,0,0,.23.59,1.79,1.79,0,0,0,.34.46,1.46,1.46,0,0,0,.45.3,1.48,1.48,0,0,0,.58.11,1.45,1.45,0,0,0,.75-.2,1.68,1.68,0,0,0,.58-.6,3.26,3.26,0,0,0,.37-1A6.45,6.45,0,0,0,153.76,150Z"/><path class="cls-4" d="M168.32,153.93h-5v-1h2v-5.82l-1.91,1-.39-.9,2.54-1.34h.94v7h1.78Z"/><path class="cls-4" d="M182.06,153.93h-5v-1h2v-5.82l-1.91,1-.39-.9,2.54-1.34h.94v7h1.78Z"/><path class="cls-4" d="M202.92,150a7.07,7.07,0,0,1-.18,1.67,3.86,3.86,0,0,1-.56,1.29,2.61,2.61,0,0,1-.92.84,2.71,2.71,0,0,1-1.3.3,2.75,2.75,0,0,1-1.17-.24,2.31,2.31,0,0,1-.9-.74,3.66,3.66,0,0,1-.57-1.28,7.36,7.36,0,0,1-.2-1.84,7,7,0,0,1,.19-1.67,4,4,0,0,1,.56-1.3,2.58,2.58,0,0,1,.92-.84,2.71,2.71,0,0,1,1.29-.3,2.76,2.76,0,0,1,1.17.24,2.31,2.31,0,0,1,.9.74,3.7,3.7,0,0,1,.57,1.28A7.37,7.37,0,0,1,202.92,150Zm-4.72,0c0,.13,0,.25,0,.38s0,.25,0,.37l3.37-2.5a2.85,2.85,0,0,0-.23-.57,1.8,1.8,0,0,0-.34-.44,1.44,1.44,0,0,0-.45-.29,1.54,1.54,0,0,0-1.31.1,1.68,1.68,0,0,0-.58.6,3.3,3.3,0,0,0-.37,1A6.46,6.46,0,0,0,198.2,149.91Zm3.65.07c0-.14,0-.28,0-.41s0-.27,0-.4l-3.37,2.51a3.14,3.14,0,0,0,.23.59,1.79,1.79,0,0,0,.34.46,1.46,1.46,0,0,0,.45.3,1.48,1.48,0,0,0,.58.11,1.45,1.45,0,0,0,.75-.2,1.68,1.68,0,0,0,.58-.6,3.26,3.26,0,0,0,.37-1A6.45,6.45,0,0,0,201.85,150Z"/><path class="cls-4" d="M209.54,153.93h-5v-1h2v-5.82l-1.91,1-.39-.9,2.54-1.34h.94v7h1.78Z"/><path class="cls-4" d="M230.4,150a7.07,7.07,0,0,1-.18,1.67,3.86,3.86,0,0,1-.56,1.29,2.61,2.61,0,0,1-.92.84,2.71,2.71,0,0,1-1.3.3,2.75,2.75,0,0,1-1.17-.24,2.31,2.31,0,0,1-.9-.74,3.66,3.66,0,0,1-.57-1.28,7.37,7.37,0,0,1-.2-1.84,7,7,0,0,1,.19-1.67,4,4,0,0,1,.55-1.3,2.58,2.58,0,0,1,.92-.84,2.71,2.71,0,0,1,1.29-.3,2.76,2.76,0,0,1,1.17.24,2.31,2.31,0,0,1,.9.74,3.69,3.69,0,0,1,.57,1.28A7.36,7.36,0,0,1,230.4,150Zm-4.72,0c0,.13,0,.25,0,.38s0,.25,0,.37l3.37-2.5a2.82,2.82,0,0,0-.23-.57,1.8,1.8,0,0,0-.34-.44,1.44,1.44,0,0,0-.45-.29,1.54,1.54,0,0,0-1.31.1,1.68,1.68,0,0,0-.58.6,3.3,3.3,0,0,0-.37,1A6.45,6.45,0,0,0,225.68,149.91Zm3.65.07c0-.14,0-.28,0-.41s0-.27,0-.4l-3.37,2.51a3.14,3.14,0,0,0,.23.59,1.79,1.79,0,0,0,.34.46,1.51,1.51,0,0,0,1.78.2,1.68,1.68,0,0,0,.58-.6,3.25,3.25,0,0,0,.37-1A6.45,6.45,0,0,0,229.33,150Z"/><path class="cls-4" d="M237,153.93h-5v-1h2.05v-5.82l-1.91,1-.39-.9,2.54-1.34h.94v7H237Z"/><path class="cls-4" d="M65.28,168.93h-5v-1h2v-5.82l-1.91,1-.39-.9,2.54-1.34h.94v7h1.78Z"/><path class="cls-4" d="M72.4,164.94a7.07,7.07,0,0,1-.18,1.67,3.86,3.86,0,0,1-.56,1.29,2.61,2.61,0,0,1-.92.84,2.71,2.71,0,0,1-1.3.3,2.76,2.76,0,0,1-1.17-.24,2.31,2.31,0,0,1-.9-.74,3.65,3.65,0,0,1-.57-1.27,7.37,7.37,0,0,1-.2-1.84,7,7,0,0,1,.19-1.67,4,4,0,0,1,.56-1.3,2.58,2.58,0,0,1,.92-.84,2.71,2.71,0,0,1,1.29-.3,2.77,2.77,0,0,1,1.17.24,2.31,2.31,0,0,1,.9.74,3.7,3.7,0,0,1,.57,1.28A7.36,7.36,0,0,1,72.4,164.94Zm-4.72,0q0,.19,0,.38c0,.13,0,.25,0,.37l3.37-2.5a2.86,2.86,0,0,0-.23-.57,1.81,1.81,0,0,0-.34-.44,1.41,1.41,0,0,0-1-.39,1.45,1.45,0,0,0-.75.2,1.68,1.68,0,0,0-.58.6,3.3,3.3,0,0,0-.37,1A6.46,6.46,0,0,0,67.67,164.91Zm3.65.07q0-.21,0-.41c0-.14,0-.27,0-.4l-3.37,2.51a3.12,3.12,0,0,0,.23.59,1.78,1.78,0,0,0,.34.46,1.45,1.45,0,0,0,.45.3,1.48,1.48,0,0,0,.58.11,1.45,1.45,0,0,0,.75-.2,1.68,1.68,0,0,0,.58-.6,3.26,3.26,0,0,0,.37-1A6.46,6.46,0,0,0,71.32,165Z"/><path class="cls-4" d="M79,168.93H74v-1h2v-5.82l-1.91,1-.39-.9,2.54-1.34h.94v7H79Z"/><path class="cls-4" d="M99.63,168.93h-5v-1h2.05v-5.82l-1.91,1-.39-.9,2.54-1.34h.94v7h1.78Z"/><path class="cls-4" d="M106.49,168.93h-5v-1h2.05v-5.82l-1.91,1-.39-.9,2.54-1.34h.94v7h1.78Z"/><path class="cls-4" d="M127.1,168.93h-5v-1h2v-5.82l-1.91,1-.39-.9,2.54-1.34h.94v7h1.78Z"/><path class="cls-4" d="M134.22,164.94a7.06,7.06,0,0,1-.18,1.67,3.86,3.86,0,0,1-.56,1.29,2.61,2.61,0,0,1-.92.84,2.71,2.71,0,0,1-1.3.3,2.76,2.76,0,0,1-1.17-.24,2.31,2.31,0,0,1-.9-.74,3.65,3.65,0,0,1-.57-1.27,7.37,7.37,0,0,1-.2-1.84,7,7,0,0,1,.19-1.67,3.94,3.94,0,0,1,.56-1.3,2.58,2.58,0,0,1,.92-.84,2.71,2.71,0,0,1,1.29-.3,2.77,2.77,0,0,1,1.17.24,2.31,2.31,0,0,1,.9.74,3.7,3.7,0,0,1,.57,1.28A7.36,7.36,0,0,1,134.22,164.94Zm-4.72,0q0,.19,0,.38c0,.13,0,.25,0,.37l3.37-2.5a2.85,2.85,0,0,0-.23-.57,1.8,1.8,0,0,0-.34-.44,1.5,1.5,0,0,0-1.76-.19,1.68,1.68,0,0,0-.58.6,3.3,3.3,0,0,0-.37,1A6.46,6.46,0,0,0,129.5,164.91Zm3.65.07q0-.21,0-.41c0-.14,0-.27,0-.4l-3.37,2.51a3.12,3.12,0,0,0,.23.59,1.78,1.78,0,0,0,.34.46,1.45,1.45,0,0,0,.45.3,1.48,1.48,0,0,0,.58.11,1.45,1.45,0,0,0,.75-.2,1.68,1.68,0,0,0,.58-.6,3.26,3.26,0,0,0,.37-1A6.46,6.46,0,0,0,133.15,165Z"/><path class="cls-4" d="M154.58,168.93h-5v-1h2.05v-5.82l-1.91,1-.39-.9,2.54-1.34h.94v7h1.78Z"/><path class="cls-4" d="M168.32,168.93h-5v-1h2v-5.82l-1.91,1-.39-.9,2.54-1.34h.94v7h1.78Z"/><path class="cls-4" d="M182.31,164.94a7.06,7.06,0,0,1-.18,1.67,3.86,3.86,0,0,1-.56,1.29,2.61,2.61,0,0,1-.92.84,2.71,2.71,0,0,1-1.3.3,2.76,2.76,0,0,1-1.17-.24,2.31,2.31,0,0,1-.9-.74,3.66,3.66,0,0,1-.57-1.27,7.37,7.37,0,0,1-.2-1.84,7,7,0,0,1,.19-1.67,4,4,0,0,1,.56-1.3,2.58,2.58,0,0,1,.92-.84,2.71,2.71,0,0,1,1.29-.3,2.77,2.77,0,0,1,1.17.24,2.31,2.31,0,0,1,.9.74,3.7,3.7,0,0,1,.57,1.28A7.36,7.36,0,0,1,182.31,164.94Zm-4.72,0q0,.19,0,.38c0,.13,0,.25,0,.37l3.37-2.5a2.85,2.85,0,0,0-.23-.57,1.8,1.8,0,0,0-.34-.44,1.5,1.5,0,0,0-1.76-.19,1.68,1.68,0,0,0-.58.6,3.3,3.3,0,0,0-.37,1A6.46,6.46,0,0,0,177.59,164.91Zm3.65.07q0-.21,0-.41c0-.14,0-.27,0-.4l-3.37,2.51a3.12,3.12,0,0,0,.23.59,1.78,1.78,0,0,0,.34.46,1.45,1.45,0,0,0,.45.3,1.48,1.48,0,0,0,.58.11,1.45,1.45,0,0,0,.75-.2,1.68,1.68,0,0,0,.58-.6,3.26,3.26,0,0,0,.37-1A6.46,6.46,0,0,0,181.24,165Z"/><path class="cls-4" d="M202.92,164.94a7.07,7.07,0,0,1-.18,1.67,3.86,3.86,0,0,1-.56,1.29,2.61,2.61,0,0,1-.92.84,2.71,2.71,0,0,1-1.3.3,2.76,2.76,0,0,1-1.17-.24,2.31,2.31,0,0,1-.9-.74,3.66,3.66,0,0,1-.57-1.27,7.37,7.37,0,0,1-.2-1.84,7,7,0,0,1,.19-1.67,4,4,0,0,1,.56-1.3,2.58,2.58,0,0,1,.92-.84,2.71,2.71,0,0,1,1.29-.3,2.77,2.77,0,0,1,1.17.24,2.31,2.31,0,0,1,.9.74,3.7,3.7,0,0,1,.57,1.28A7.36,7.36,0,0,1,202.92,164.94Zm-4.72,0q0,.19,0,.38c0,.13,0,.25,0,.37l3.37-2.5a2.86,2.86,0,0,0-.23-.57,1.8,1.8,0,0,0-.34-.44,1.5,1.5,0,0,0-1.76-.19,1.68,1.68,0,0,0-.58.6,3.3,3.3,0,0,0-.37,1A6.46,6.46,0,0,0,198.2,164.91Zm3.65.07q0-.21,0-.41c0-.14,0-.27,0-.4l-3.37,2.51a3.12,3.12,0,0,0,.23.59,1.78,1.78,0,0,0,.34.46,1.45,1.45,0,0,0,.45.3,1.48,1.48,0,0,0,.58.11,1.45,1.45,0,0,0,.75-.2,1.68,1.68,0,0,0,.58-.6,3.26,3.26,0,0,0,.37-1A6.45,6.45,0,0,0,201.85,165Z"/><path class="cls-4" d="M209.54,168.93h-5v-1h2v-5.82l-1.91,1-.39-.9,2.54-1.34h.94v7h1.78Z"/><path class="cls-4" d="M230.4,164.94a7.07,7.07,0,0,1-.18,1.67,3.86,3.86,0,0,1-.56,1.29,2.6,2.6,0,0,1-.92.84,2.71,2.71,0,0,1-1.3.3,2.76,2.76,0,0,1-1.17-.24,2.31,2.31,0,0,1-.9-.74,3.66,3.66,0,0,1-.57-1.27,7.38,7.38,0,0,1-.2-1.84,7,7,0,0,1,.19-1.67,4,4,0,0,1,.55-1.3,2.58,2.58,0,0,1,.92-.84,2.71,2.71,0,0,1,1.29-.3,2.77,2.77,0,0,1,1.17.24,2.31,2.31,0,0,1,.9.74,3.69,3.69,0,0,1,.57,1.28A7.36,7.36,0,0,1,230.4,164.94Zm-4.72,0q0,.19,0,.38c0,.13,0,.25,0,.37l3.37-2.5a2.83,2.83,0,0,0-.23-.57,1.8,1.8,0,0,0-.34-.44,1.5,1.5,0,0,0-1.76-.19,1.68,1.68,0,0,0-.58.6,3.3,3.3,0,0,0-.37,1A6.45,6.45,0,0,0,225.68,164.91Zm3.65.07q0-.21,0-.41c0-.14,0-.27,0-.4l-3.37,2.51a3.11,3.11,0,0,0,.23.59,1.78,1.78,0,0,0,.34.46,1.45,1.45,0,0,0,.45.3,1.48,1.48,0,0,0,.58.11,1.45,1.45,0,0,0,.75-.2,1.68,1.68,0,0,0,.58-.6,3.26,3.26,0,0,0,.37-1A6.45,6.45,0,0,0,229.33,165Z"/><path class="cls-4" d="M237,168.93h-5v-1h2.05v-5.82l-1.91,1-.39-.9,2.54-1.34h.94v7H237Z"/><path class="cls-4" d="M65.28,183.92h-5v-1h2v-5.82l-1.91,1-.39-.9,2.54-1.34h.94v7h1.78Z"/><path class="cls-4" d="M72.15,183.92h-5v-1h2v-5.82l-1.91,1-.39-.9,2.54-1.34h.94v7h1.78Z"/><path class="cls-4" d="M79.27,179.94a7.07,7.07,0,0,1-.18,1.67,3.87,3.87,0,0,1-.56,1.29,2.61,2.61,0,0,1-.92.84,2.7,2.7,0,0,1-1.3.3,2.76,2.76,0,0,1-1.17-.24,2.32,2.32,0,0,1-.9-.74,3.66,3.66,0,0,1-.57-1.28,7.37,7.37,0,0,1-.2-1.84,7,7,0,0,1,.19-1.67,3.94,3.94,0,0,1,.56-1.3,2.58,2.58,0,0,1,.92-.84,2.72,2.72,0,0,1,1.29-.3,2.75,2.75,0,0,1,1.17.24,2.3,2.3,0,0,1,.9.74,3.7,3.7,0,0,1,.57,1.28A7.37,7.37,0,0,1,79.27,179.94Zm-4.72,0q0,.19,0,.38t0,.37l3.37-2.5a2.86,2.86,0,0,0-.23-.57,1.81,1.81,0,0,0-.34-.44,1.43,1.43,0,0,0-.45-.29,1.53,1.53,0,0,0-1.31.1,1.67,1.67,0,0,0-.58.6,3.31,3.31,0,0,0-.37,1A6.47,6.47,0,0,0,74.54,179.9Zm3.65.07q0-.21,0-.41t0-.4l-3.37,2.51a3.15,3.15,0,0,0,.23.59,1.8,1.8,0,0,0,.34.46,1.51,1.51,0,0,0,1.78.2,1.68,1.68,0,0,0,.58-.6,3.25,3.25,0,0,0,.37-1A6.46,6.46,0,0,0,78.19,180Z"/><path class="cls-4" d="M99.63,183.92h-5v-1h2.05v-5.82l-1.91,1-.39-.9,2.54-1.34h.94v7h1.78Z"/><path class="cls-4" d="M127.1,183.92h-5v-1h2v-5.82l-1.91,1-.39-.9,2.54-1.34h.94v7h1.78Z"/><path class="cls-4" d="M134.22,179.94a7.07,7.07,0,0,1-.18,1.67,3.87,3.87,0,0,1-.56,1.29,2.61,2.61,0,0,1-.92.84,2.7,2.7,0,0,1-1.3.3,2.76,2.76,0,0,1-1.17-.24,2.32,2.32,0,0,1-.9-.74,3.66,3.66,0,0,1-.57-1.28,7.36,7.36,0,0,1-.2-1.84,7,7,0,0,1,.19-1.67,3.94,3.94,0,0,1,.56-1.3,2.58,2.58,0,0,1,.92-.84,2.72,2.72,0,0,1,1.29-.3,2.75,2.75,0,0,1,1.17.24,2.3,2.3,0,0,1,.9.74,3.7,3.7,0,0,1,.57,1.28A7.37,7.37,0,0,1,134.22,179.94Zm-4.72,0q0,.19,0,.38t0,.37l3.37-2.5a2.86,2.86,0,0,0-.23-.57,1.81,1.81,0,0,0-.34-.44,1.43,1.43,0,0,0-.45-.29,1.53,1.53,0,0,0-1.31.1,1.67,1.67,0,0,0-.58.6,3.31,3.31,0,0,0-.37,1A6.47,6.47,0,0,0,129.5,179.9Zm3.65.07q0-.21,0-.41t0-.4l-3.37,2.51a3.14,3.14,0,0,0,.23.59,1.8,1.8,0,0,0,.34.46,1.51,1.51,0,0,0,1.78.2,1.68,1.68,0,0,0,.58-.6,3.25,3.25,0,0,0,.37-1A6.46,6.46,0,0,0,133.15,180Z"/><path class="cls-4" d="M154.83,179.94a7.07,7.07,0,0,1-.18,1.67,3.87,3.87,0,0,1-.56,1.29,2.61,2.61,0,0,1-.92.84,2.7,2.7,0,0,1-1.3.3,2.76,2.76,0,0,1-1.17-.24,2.32,2.32,0,0,1-.9-.74,3.66,3.66,0,0,1-.57-1.28,7.36,7.36,0,0,1-.2-1.84,7,7,0,0,1,.19-1.67,3.94,3.94,0,0,1,.56-1.3,2.58,2.58,0,0,1,.92-.84,2.72,2.72,0,0,1,1.29-.3,2.75,2.75,0,0,1,1.17.24,2.3,2.3,0,0,1,.9.74,3.7,3.7,0,0,1,.57,1.28A7.37,7.37,0,0,1,154.83,179.94Zm-4.72,0q0,.19,0,.38t0,.37l3.37-2.5a2.87,2.87,0,0,0-.23-.57,1.81,1.81,0,0,0-.34-.44,1.43,1.43,0,0,0-.45-.29,1.53,1.53,0,0,0-1.31.1,1.67,1.67,0,0,0-.58.6,3.31,3.31,0,0,0-.37,1A6.47,6.47,0,0,0,150.11,179.9Zm3.65.07q0-.21,0-.41t0-.4l-3.37,2.51a3.13,3.13,0,0,0,.23.59,1.8,1.8,0,0,0,.34.46,1.51,1.51,0,0,0,1.78.2,1.68,1.68,0,0,0,.58-.6,3.26,3.26,0,0,0,.37-1A6.45,6.45,0,0,0,153.76,180Z"/><path class="cls-4" d="M182.06,183.92h-5v-1h2v-5.82l-1.91,1-.39-.9,2.54-1.34h.94v7h1.78Z"/><path class="cls-4" d="M209.54,183.92h-5v-1h2v-5.82l-1.91,1-.39-.9,2.54-1.34h.94v7h1.78Z"/><path class="cls-4" d="M230.15,183.92h-5v-1h2.05v-5.82l-1.91,1-.39-.9,2.54-1.34h.94v7h1.78Z"/><path class="cls-4" d="M237.27,179.94a7.07,7.07,0,0,1-.18,1.67,3.86,3.86,0,0,1-.56,1.29,2.6,2.6,0,0,1-.92.84,2.7,2.7,0,0,1-1.3.3,2.76,2.76,0,0,1-1.16-.24,2.32,2.32,0,0,1-.9-.74,3.67,3.67,0,0,1-.57-1.28,7.37,7.37,0,0,1-.2-1.84,7,7,0,0,1,.19-1.67,3.94,3.94,0,0,1,.55-1.3,2.58,2.58,0,0,1,.92-.84,2.72,2.72,0,0,1,1.29-.3,2.75,2.75,0,0,1,1.17.24,2.3,2.3,0,0,1,.9.74,3.69,3.69,0,0,1,.57,1.28A7.37,7.37,0,0,1,237.27,179.94Zm-4.72,0q0,.19,0,.38t0,.37l3.37-2.5a2.85,2.85,0,0,0-.23-.57,1.8,1.8,0,0,0-.34-.44,1.43,1.43,0,0,0-.45-.29,1.53,1.53,0,0,0-1.31.1,1.68,1.68,0,0,0-.58.6,3.31,3.31,0,0,0-.37,1A6.46,6.46,0,0,0,232.55,179.9Zm3.65.07q0-.21,0-.41t0-.4l-3.37,2.51a3.15,3.15,0,0,0,.23.59,1.8,1.8,0,0,0,.34.46,1.51,1.51,0,0,0,1.78.2,1.68,1.68,0,0,0,.58-.6,3.26,3.26,0,0,0,.37-1A6.47,6.47,0,0,0,236.2,180Z"/><path class="cls-4" d="M65.53,194.93a7.08,7.08,0,0,1-.18,1.67,3.87,3.87,0,0,1-.56,1.29,2.61,2.61,0,0,1-.92.84,2.71,2.71,0,0,1-1.3.3,2.75,2.75,0,0,1-1.17-.24,2.31,2.31,0,0,1-.9-.74,3.66,3.66,0,0,1-.57-1.28,7.36,7.36,0,0,1-.2-1.84,7,7,0,0,1,.19-1.67,3.94,3.94,0,0,1,.56-1.3,2.58,2.58,0,0,1,.92-.84,2.7,2.7,0,0,1,1.29-.3,2.75,2.75,0,0,1,1.17.24,2.31,2.31,0,0,1,.9.74,3.71,3.71,0,0,1,.57,1.28A7.37,7.37,0,0,1,65.53,194.93Zm-4.72,0c0,.13,0,.25,0,.38s0,.25,0,.37l3.37-2.5a2.84,2.84,0,0,0-.23-.57,1.81,1.81,0,0,0-.34-.44,1.43,1.43,0,0,0-.45-.29,1.54,1.54,0,0,0-1.31.1,1.68,1.68,0,0,0-.58.6,3.29,3.29,0,0,0-.37,1A6.46,6.46,0,0,0,60.8,194.89Zm3.65.07c0-.14,0-.28,0-.41s0-.27,0-.4L61,196.66a3.13,3.13,0,0,0,.23.59,1.78,1.78,0,0,0,.34.46,1.46,1.46,0,0,0,.45.3,1.48,1.48,0,0,0,.58.11,1.45,1.45,0,0,0,.75-.2,1.68,1.68,0,0,0,.58-.6,3.25,3.25,0,0,0,.37-1A6.46,6.46,0,0,0,64.45,195Z"/><path class="cls-4" d="M79.27,194.93a7.07,7.07,0,0,1-.18,1.67,3.87,3.87,0,0,1-.56,1.29,2.61,2.61,0,0,1-.92.84,2.71,2.71,0,0,1-1.3.3,2.75,2.75,0,0,1-1.17-.24,2.31,2.31,0,0,1-.9-.74,3.66,3.66,0,0,1-.57-1.28,7.37,7.37,0,0,1-.2-1.84,7,7,0,0,1,.19-1.67,3.94,3.94,0,0,1,.56-1.3,2.58,2.58,0,0,1,.92-.84,2.7,2.7,0,0,1,1.29-.3,2.75,2.75,0,0,1,1.17.24,2.31,2.31,0,0,1,.9.74,3.7,3.7,0,0,1,.57,1.28A7.37,7.37,0,0,1,79.27,194.93Zm-4.72,0c0,.13,0,.25,0,.38s0,.25,0,.37l3.37-2.5a2.83,2.83,0,0,0-.23-.57,1.8,1.8,0,0,0-.34-.44,1.43,1.43,0,0,0-.45-.29,1.54,1.54,0,0,0-1.31.1,1.68,1.68,0,0,0-.58.6,3.3,3.3,0,0,0-.37,1A6.46,6.46,0,0,0,74.54,194.89Zm3.65.07c0-.14,0-.28,0-.41s0-.27,0-.4l-3.37,2.51a3.14,3.14,0,0,0,.23.59,1.79,1.79,0,0,0,.34.46,1.46,1.46,0,0,0,.45.3,1.48,1.48,0,0,0,.58.11,1.45,1.45,0,0,0,.75-.2,1.68,1.68,0,0,0,.58-.6,3.25,3.25,0,0,0,.37-1A6.46,6.46,0,0,0,78.19,195Z"/><path class="cls-4" d="M99.63,198.92h-5v-1h2.05v-5.82l-1.91,1-.39-.9,2.54-1.34h.94v7h1.78Z"/><path class="cls-4" d="M127.1,198.92h-5v-1h2v-5.82l-1.91,1-.39-.9,2.54-1.34h.94v7h1.78Z"/><path class="cls-4" d="M134.22,194.93a7.07,7.07,0,0,1-.18,1.67,3.87,3.87,0,0,1-.56,1.29,2.61,2.61,0,0,1-.92.84,2.71,2.71,0,0,1-1.3.3,2.75,2.75,0,0,1-1.17-.24,2.31,2.31,0,0,1-.9-.74,3.66,3.66,0,0,1-.57-1.28,7.36,7.36,0,0,1-.2-1.84,7,7,0,0,1,.19-1.67,3.94,3.94,0,0,1,.56-1.3,2.58,2.58,0,0,1,.92-.84,2.7,2.7,0,0,1,1.29-.3,2.75,2.75,0,0,1,1.17.24,2.31,2.31,0,0,1,.9.74,3.7,3.7,0,0,1,.57,1.28A7.37,7.37,0,0,1,134.22,194.93Zm-4.72,0c0,.13,0,.25,0,.38s0,.25,0,.37l3.37-2.5a2.83,2.83,0,0,0-.23-.57,1.8,1.8,0,0,0-.34-.44,1.43,1.43,0,0,0-.45-.29,1.54,1.54,0,0,0-1.31.1,1.68,1.68,0,0,0-.58.6,3.29,3.29,0,0,0-.37,1A6.46,6.46,0,0,0,129.5,194.89Zm3.65.07c0-.14,0-.28,0-.41s0-.27,0-.4l-3.37,2.51a3.14,3.14,0,0,0,.23.59,1.79,1.79,0,0,0,.34.46,1.46,1.46,0,0,0,.45.3,1.48,1.48,0,0,0,.58.11,1.45,1.45,0,0,0,.75-.2,1.68,1.68,0,0,0,.58-.6,3.25,3.25,0,0,0,.37-1A6.46,6.46,0,0,0,133.15,195Z"/><path class="cls-4" d="M154.83,194.93a7.07,7.07,0,0,1-.18,1.67,3.87,3.87,0,0,1-.56,1.29,2.61,2.61,0,0,1-.92.84,2.71,2.71,0,0,1-1.3.3,2.75,2.75,0,0,1-1.17-.24,2.31,2.31,0,0,1-.9-.74,3.66,3.66,0,0,1-.57-1.28,7.36,7.36,0,0,1-.2-1.84,7,7,0,0,1,.19-1.67,4,4,0,0,1,.56-1.3,2.58,2.58,0,0,1,.92-.84,2.7,2.7,0,0,1,1.29-.3,2.75,2.75,0,0,1,1.17.24,2.31,2.31,0,0,1,.9.74,3.71,3.71,0,0,1,.57,1.28A7.37,7.37,0,0,1,154.83,194.93Zm-4.72,0c0,.13,0,.25,0,.38s0,.25,0,.37l3.37-2.5a2.84,2.84,0,0,0-.23-.57,1.8,1.8,0,0,0-.34-.44,1.43,1.43,0,0,0-.45-.29,1.54,1.54,0,0,0-1.31.1,1.68,1.68,0,0,0-.58.6,3.3,3.3,0,0,0-.37,1A6.46,6.46,0,0,0,150.11,194.89Zm3.65.07c0-.14,0-.28,0-.41s0-.27,0-.4l-3.37,2.51a3.13,3.13,0,0,0,.23.59,1.79,1.79,0,0,0,.34.46,1.46,1.46,0,0,0,.45.3,1.48,1.48,0,0,0,.58.11,1.45,1.45,0,0,0,.75-.2,1.68,1.68,0,0,0,.58-.6,3.25,3.25,0,0,0,.37-1A6.45,6.45,0,0,0,153.76,195Z"/><path class="cls-4" d="M182.31,194.93a7.07,7.07,0,0,1-.18,1.67,3.87,3.87,0,0,1-.56,1.29,2.61,2.61,0,0,1-.92.84,2.71,2.71,0,0,1-1.3.3,2.75,2.75,0,0,1-1.17-.24,2.31,2.31,0,0,1-.9-.74,3.66,3.66,0,0,1-.57-1.28,7.36,7.36,0,0,1-.2-1.84,7,7,0,0,1,.19-1.67,3.94,3.94,0,0,1,.56-1.3,2.58,2.58,0,0,1,.92-.84,2.7,2.7,0,0,1,1.29-.3,2.75,2.75,0,0,1,1.17.24,2.31,2.31,0,0,1,.9.74,3.7,3.7,0,0,1,.57,1.28A7.37,7.37,0,0,1,182.31,194.93Zm-4.72,0c0,.13,0,.25,0,.38s0,.25,0,.37l3.37-2.5a2.83,2.83,0,0,0-.23-.57,1.8,1.8,0,0,0-.34-.44,1.43,1.43,0,0,0-.45-.29,1.54,1.54,0,0,0-1.31.1,1.68,1.68,0,0,0-.58.6,3.29,3.29,0,0,0-.37,1A6.46,6.46,0,0,0,177.59,194.89Zm3.65.07c0-.14,0-.28,0-.41s0-.27,0-.4l-3.37,2.51a3.14,3.14,0,0,0,.23.59,1.79,1.79,0,0,0,.34.46,1.46,1.46,0,0,0,.45.3,1.48,1.48,0,0,0,.58.11,1.45,1.45,0,0,0,.75-.2,1.68,1.68,0,0,0,.58-.6,3.25,3.25,0,0,0,.37-1A6.46,6.46,0,0,0,181.24,195Z"/><path class="cls-4" d="M209.79,194.93a7.08,7.08,0,0,1-.18,1.67,3.87,3.87,0,0,1-.56,1.29,2.61,2.61,0,0,1-.92.84,2.71,2.71,0,0,1-1.3.3,2.75,2.75,0,0,1-1.17-.24,2.31,2.31,0,0,1-.9-.74,3.66,3.66,0,0,1-.57-1.28,7.36,7.36,0,0,1-.2-1.84,7,7,0,0,1,.19-1.67,4,4,0,0,1,.56-1.3,2.58,2.58,0,0,1,.92-.84,2.7,2.7,0,0,1,1.29-.3,2.75,2.75,0,0,1,1.17.24,2.31,2.31,0,0,1,.9.74,3.7,3.7,0,0,1,.57,1.28A7.36,7.36,0,0,1,209.79,194.93Zm-4.72,0c0,.13,0,.25,0,.38s0,.25,0,.37l3.37-2.5a2.84,2.84,0,0,0-.23-.57,1.8,1.8,0,0,0-.34-.44,1.43,1.43,0,0,0-.45-.29,1.54,1.54,0,0,0-1.31.1,1.68,1.68,0,0,0-.58.6,3.29,3.29,0,0,0-.37,1A6.45,6.45,0,0,0,205.07,194.89Zm3.65.07c0-.14,0-.28,0-.41s0-.27,0-.4l-3.37,2.51a3.13,3.13,0,0,0,.23.59,1.79,1.79,0,0,0,.34.46,1.46,1.46,0,0,0,.45.3,1.48,1.48,0,0,0,.58.11,1.45,1.45,0,0,0,.75-.2,1.68,1.68,0,0,0,.58-.6,3.25,3.25,0,0,0,.37-1A6.46,6.46,0,0,0,208.72,195Z"/><path class="cls-4" d="M230.4,194.93a7.08,7.08,0,0,1-.18,1.67,3.86,3.86,0,0,1-.56,1.29,2.61,2.61,0,0,1-.92.84,2.71,2.71,0,0,1-1.3.3,2.75,2.75,0,0,1-1.17-.24,2.31,2.31,0,0,1-.9-.74,3.66,3.66,0,0,1-.57-1.28,7.37,7.37,0,0,1-.2-1.84,7,7,0,0,1,.19-1.67,4,4,0,0,1,.55-1.3,2.58,2.58,0,0,1,.92-.84,2.7,2.7,0,0,1,1.29-.3,2.76,2.76,0,0,1,1.17.24,2.31,2.31,0,0,1,.9.74,3.7,3.7,0,0,1,.57,1.28A7.36,7.36,0,0,1,230.4,194.93Zm-4.72,0c0,.13,0,.25,0,.38s0,.25,0,.37l3.37-2.5a2.81,2.81,0,0,0-.23-.57,1.8,1.8,0,0,0-.34-.44,1.43,1.43,0,0,0-.45-.29,1.54,1.54,0,0,0-1.31.1,1.68,1.68,0,0,0-.58.6,3.29,3.29,0,0,0-.37,1A6.45,6.45,0,0,0,225.68,194.89Zm3.65.07c0-.14,0-.28,0-.41s0-.27,0-.4l-3.37,2.51a3.13,3.13,0,0,0,.23.59,1.79,1.79,0,0,0,.34.46,1.51,1.51,0,0,0,1.78.2,1.68,1.68,0,0,0,.58-.6,3.24,3.24,0,0,0,.37-1A6.45,6.45,0,0,0,229.33,195Z"/><path class="cls-4" d="M65.53,209.92a7.08,7.08,0,0,1-.18,1.67,3.87,3.87,0,0,1-.56,1.29,2.61,2.61,0,0,1-.92.84,2.71,2.71,0,0,1-1.3.3,2.77,2.77,0,0,1-1.17-.24,2.31,2.31,0,0,1-.9-.74,3.65,3.65,0,0,1-.57-1.27,7.37,7.37,0,0,1-.2-1.84,7,7,0,0,1,.19-1.67,3.94,3.94,0,0,1,.56-1.3,2.57,2.57,0,0,1,.92-.84,2.71,2.71,0,0,1,1.29-.3,2.76,2.76,0,0,1,1.17.24,2.31,2.31,0,0,1,.9.74,3.69,3.69,0,0,1,.57,1.28A7.37,7.37,0,0,1,65.53,209.92Zm-4.72,0q0,.19,0,.38t0,.37l3.37-2.49a2.86,2.86,0,0,0-.23-.57,1.81,1.81,0,0,0-.34-.44,1.5,1.5,0,0,0-1.76-.19,1.67,1.67,0,0,0-.58.6,3.3,3.3,0,0,0-.37,1A6.46,6.46,0,0,0,60.8,209.89Zm3.65.07q0-.21,0-.41t0-.4L61,211.66a3.13,3.13,0,0,0,.23.59,1.79,1.79,0,0,0,.34.46,1.46,1.46,0,0,0,.45.3,1.48,1.48,0,0,0,.58.11,1.45,1.45,0,0,0,.75-.2,1.68,1.68,0,0,0,.58-.6,3.26,3.26,0,0,0,.37-1A6.47,6.47,0,0,0,64.45,210Z"/><path class="cls-4" d="M79.27,209.92a7.07,7.07,0,0,1-.18,1.67,3.87,3.87,0,0,1-.56,1.29,2.61,2.61,0,0,1-.92.84,2.71,2.71,0,0,1-1.3.3,2.77,2.77,0,0,1-1.17-.24,2.31,2.31,0,0,1-.9-.74,3.65,3.65,0,0,1-.57-1.27,7.37,7.37,0,0,1-.2-1.84,7,7,0,0,1,.19-1.67,3.94,3.94,0,0,1,.56-1.3,2.57,2.57,0,0,1,.92-.84,2.71,2.71,0,0,1,1.29-.3,2.76,2.76,0,0,1,1.17.24,2.31,2.31,0,0,1,.9.74,3.69,3.69,0,0,1,.57,1.28A7.37,7.37,0,0,1,79.27,209.92Zm-4.72,0q0,.19,0,.38t0,.37l3.37-2.49a2.85,2.85,0,0,0-.23-.57,1.8,1.8,0,0,0-.34-.44,1.5,1.5,0,0,0-1.76-.19,1.67,1.67,0,0,0-.58.6,3.31,3.31,0,0,0-.37,1A6.46,6.46,0,0,0,74.54,209.89Zm3.65.07q0-.21,0-.41t0-.4l-3.37,2.51a3.15,3.15,0,0,0,.23.59,1.79,1.79,0,0,0,.34.46,1.46,1.46,0,0,0,.45.3,1.48,1.48,0,0,0,.58.11,1.44,1.44,0,0,0,.75-.2,1.68,1.68,0,0,0,.58-.6,3.25,3.25,0,0,0,.37-1A6.47,6.47,0,0,0,78.19,210Z"/><path class="cls-4" d="M134,213.91h-5v-1h2V207.1l-1.91,1-.39-.9,2.54-1.34h.94v7H134Z"/><path class="cls-4" d="M154.58,213.91h-5v-1h2.05V207.1l-1.91,1-.39-.9,2.54-1.34h.94v7h1.78Z"/><path class="cls-4" d="M182.31,209.92a7.07,7.07,0,0,1-.18,1.67,3.87,3.87,0,0,1-.56,1.29,2.61,2.61,0,0,1-.92.84,2.71,2.71,0,0,1-1.3.3,2.77,2.77,0,0,1-1.17-.24,2.31,2.31,0,0,1-.9-.74,3.65,3.65,0,0,1-.57-1.27,7.37,7.37,0,0,1-.2-1.84,7,7,0,0,1,.19-1.67,3.94,3.94,0,0,1,.56-1.3,2.57,2.57,0,0,1,.92-.84,2.71,2.71,0,0,1,1.29-.3,2.76,2.76,0,0,1,1.17.24,2.31,2.31,0,0,1,.9.74,3.69,3.69,0,0,1,.57,1.28A7.37,7.37,0,0,1,182.31,209.92Zm-4.72,0q0,.19,0,.38t0,.37l3.37-2.49a2.85,2.85,0,0,0-.23-.57,1.8,1.8,0,0,0-.34-.44,1.5,1.5,0,0,0-1.76-.19,1.68,1.68,0,0,0-.58.6,3.3,3.3,0,0,0-.37,1A6.46,6.46,0,0,0,177.59,209.89Zm3.65.07q0-.21,0-.41t0-.4l-3.37,2.51a3.14,3.14,0,0,0,.23.59,1.79,1.79,0,0,0,.34.46,1.46,1.46,0,0,0,.45.3,1.48,1.48,0,0,0,.58.11,1.45,1.45,0,0,0,.75-.2,1.68,1.68,0,0,0,.58-.6,3.25,3.25,0,0,0,.37-1A6.47,6.47,0,0,0,181.24,210Z"/><path class="cls-4" d="M209.54,213.91h-5v-1h2V207.1l-1.91,1-.39-.9,2.54-1.34h.94v7h1.78Z"/><path class="cls-4" d="M230.15,213.91h-5v-1h2.05V207.1l-1.91,1-.39-.9,2.54-1.34h.94v7h1.78Z"/><path class="cls-4" d="M65.53,224.92a7.07,7.07,0,0,1-.18,1.67,3.86,3.86,0,0,1-.56,1.29,2.61,2.61,0,0,1-.92.84,2.71,2.71,0,0,1-1.3.3,2.76,2.76,0,0,1-1.17-.24,2.32,2.32,0,0,1-.9-.74,3.66,3.66,0,0,1-.57-1.28,7.36,7.36,0,0,1-.2-1.84,7,7,0,0,1,.19-1.67,3.94,3.94,0,0,1,.56-1.3,2.58,2.58,0,0,1,.92-.84,2.71,2.71,0,0,1,1.29-.3,2.75,2.75,0,0,1,1.17.24,2.31,2.31,0,0,1,.9.74,3.7,3.7,0,0,1,.57,1.28A7.37,7.37,0,0,1,65.53,224.92Zm-4.72,0c0,.13,0,.25,0,.38s0,.25,0,.37l3.37-2.5a2.87,2.87,0,0,0-.23-.57,1.8,1.8,0,0,0-.34-.44,1.43,1.43,0,0,0-.45-.29,1.53,1.53,0,0,0-1.31.1,1.67,1.67,0,0,0-.58.6,3.29,3.29,0,0,0-.37,1A6.46,6.46,0,0,0,60.8,224.88Zm3.65.07c0-.14,0-.28,0-.41s0-.27,0-.4L61,226.65a3.11,3.11,0,0,0,.23.59,1.79,1.79,0,0,0,.34.46,1.45,1.45,0,0,0,.45.3,1.47,1.47,0,0,0,.58.11,1.45,1.45,0,0,0,.75-.2,1.68,1.68,0,0,0,.58-.6,3.26,3.26,0,0,0,.37-1A6.46,6.46,0,0,0,64.45,225Z"/><path class="cls-4" d="M134,228.9h-5v-1h2v-5.82l-1.91,1-.39-.9,2.54-1.34h.94v7H134Z"/><path class="cls-4" d="M154.83,224.92a7.07,7.07,0,0,1-.18,1.67,3.86,3.86,0,0,1-.56,1.29,2.61,2.61,0,0,1-.92.84,2.71,2.71,0,0,1-1.3.3,2.76,2.76,0,0,1-1.17-.24,2.32,2.32,0,0,1-.9-.74,3.66,3.66,0,0,1-.57-1.28,7.36,7.36,0,0,1-.2-1.84,7,7,0,0,1,.19-1.67,3.94,3.94,0,0,1,.56-1.3,2.58,2.58,0,0,1,.92-.84,2.71,2.71,0,0,1,1.29-.3,2.75,2.75,0,0,1,1.17.24,2.31,2.31,0,0,1,.9.74,3.7,3.7,0,0,1,.57,1.28A7.37,7.37,0,0,1,154.83,224.92Zm-4.72,0c0,.13,0,.25,0,.38s0,.25,0,.37l3.37-2.5a2.87,2.87,0,0,0-.23-.57,1.8,1.8,0,0,0-.34-.44,1.43,1.43,0,0,0-.45-.29,1.53,1.53,0,0,0-1.31.1,1.67,1.67,0,0,0-.58.6,3.3,3.3,0,0,0-.37,1A6.46,6.46,0,0,0,150.11,224.88Zm3.65.07c0-.14,0-.28,0-.41s0-.27,0-.4l-3.37,2.51a3.11,3.11,0,0,0,.23.59,1.79,1.79,0,0,0,.34.46,1.45,1.45,0,0,0,.45.3,1.47,1.47,0,0,0,.58.11,1.45,1.45,0,0,0,.75-.2,1.68,1.68,0,0,0,.58-.6,3.26,3.26,0,0,0,.37-1A6.45,6.45,0,0,0,153.76,225Z"/><path class="cls-4" d="M230.15,228.9h-5v-1h2.05v-5.82l-1.91,1-.39-.9,2.54-1.34h.94v7h1.78Z"/><path class="cls-4" d="M65.28,243.9h-5v-1h2v-5.82l-1.91,1-.39-.9,2.54-1.34h.94v7h1.78Z"/><path class="cls-4" d="M134,243.9h-5v-1h2v-5.82l-1.91,1-.39-.9,2.54-1.34h.94v7H134Z"/><path class="cls-4" d="M154.83,239.91a7.08,7.08,0,0,1-.18,1.67,3.87,3.87,0,0,1-.56,1.29,2.62,2.62,0,0,1-.92.84,2.71,2.71,0,0,1-1.3.3,2.76,2.76,0,0,1-1.17-.24,2.31,2.31,0,0,1-.9-.74,3.66,3.66,0,0,1-.57-1.27,7.37,7.37,0,0,1-.2-1.84,7,7,0,0,1,.19-1.67,3.94,3.94,0,0,1,.56-1.3,2.57,2.57,0,0,1,.92-.84,2.7,2.7,0,0,1,1.29-.3,2.75,2.75,0,0,1,1.17.24,2.3,2.3,0,0,1,.9.74,3.7,3.7,0,0,1,.57,1.28A7.36,7.36,0,0,1,154.83,239.91Zm-4.72,0c0,.13,0,.25,0,.38s0,.25,0,.37l3.37-2.49a2.86,2.86,0,0,0-.23-.57,1.81,1.81,0,0,0-.34-.44,1.44,1.44,0,0,0-.45-.29,1.54,1.54,0,0,0-1.31.1,1.68,1.68,0,0,0-.58.6,3.3,3.3,0,0,0-.37,1A6.46,6.46,0,0,0,150.11,239.88Zm3.65.07q0-.21,0-.41t0-.4l-3.37,2.51a3.13,3.13,0,0,0,.23.59,1.79,1.79,0,0,0,.34.46,1.41,1.41,0,0,0,1,.41,1.45,1.45,0,0,0,.75-.2,1.68,1.68,0,0,0,.58-.6,3.27,3.27,0,0,0,.37-1A6.46,6.46,0,0,0,153.76,239.95Z"/><path class="cls-4" d="M230.15,243.9h-5v-1h2.05v-5.82l-1.91,1-.39-.9,2.54-1.34h.94v7h1.78Z"/><path class="cls-4" d="M65.53,254.91a7.08,7.08,0,0,1-.18,1.67,3.87,3.87,0,0,1-.56,1.29,2.61,2.61,0,0,1-.92.84,2.71,2.71,0,0,1-1.3.3,2.76,2.76,0,0,1-1.17-.24,2.31,2.31,0,0,1-.9-.74,3.66,3.66,0,0,1-.57-1.27,7.37,7.37,0,0,1-.2-1.84,7,7,0,0,1,.19-1.67,3.94,3.94,0,0,1,.56-1.3,2.57,2.57,0,0,1,.92-.84,2.71,2.71,0,0,1,1.29-.3,2.76,2.76,0,0,1,1.17.24,2.3,2.3,0,0,1,.9.74,3.69,3.69,0,0,1,.57,1.28A7.36,7.36,0,0,1,65.53,254.91Zm-4.72,0q0,.19,0,.38t0,.37l3.37-2.49a2.86,2.86,0,0,0-.23-.57,1.8,1.8,0,0,0-.34-.44,1.4,1.4,0,0,0-1-.39,1.44,1.44,0,0,0-.75.2,1.67,1.67,0,0,0-.58.6,3.3,3.3,0,0,0-.37,1A6.46,6.46,0,0,0,60.8,254.87Zm3.65.07q0-.21,0-.41t0-.4L61,256.64a3.13,3.13,0,0,0,.23.59,1.79,1.79,0,0,0,.34.46,1.46,1.46,0,0,0,.45.3,1.48,1.48,0,0,0,.58.11,1.45,1.45,0,0,0,.75-.2,1.68,1.68,0,0,0,.58-.6,3.26,3.26,0,0,0,.37-1A6.47,6.47,0,0,0,64.45,254.94Z"/><path class="cls-4" d="M154.58,258.89h-5v-1h2.05v-5.82l-1.91,1-.39-.9,2.54-1.34h.94v7h1.78Z"/></g></g></svg>