<svg id="Layer_1" data-name="Layer 1" xmlns="http://www.w3.org/2000/svg" viewBox="0 0 297 298"><defs><style>.cls-1{opacity:0.5;}.cls-10,.cls-11,.cls-12,.cls-13,.cls-14,.cls-15,.cls-2,.cls-3,.cls-4,.cls-5,.cls-6,.cls-7,.cls-8,.cls-9{fill:none;stroke:#e3ed26;stroke-miterlimit:10;}.cls-2{stroke-width:0.45px;}.cls-3{stroke-width:0.52px;}.cls-4{stroke-width:0.59px;}.cls-5{stroke-width:0.66px;}.cls-6{stroke-width:0.73px;}.cls-7{stroke-width:0.8px;}.cls-8{stroke-width:0.87px;}.cls-9{stroke-width:0.93px;}.cls-10{stroke-width:1px;}.cls-11{stroke-width:1.07px;}.cls-12{stroke-width:1.14px;}.cls-13{stroke-width:1.21px;}.cls-14{stroke-width:1.28px;}.cls-15{stroke-width:1.35px;}</style></defs><title>portfolio</title><g class="cls-1"><polygon class="cls-2" points="260.71 180.68 279.39 213.04 242.04 213.04 260.71 180.68 279.39 213.04 242.04 213.04 260.71 180.68"/><polygon class="cls-3" points="266.07 214.73 224.77 214.73 245.42 178.97 266.07 214.73 224.77 214.73 245.42 178.97 266.07 214.73"/><polygon class="cls-4" points="252.75 216.43 207.51 216.43 230.13 177.25 252.75 216.43 207.51 216.43 230.13 177.25 252.75 216.43"/><polygon class="cls-5" points="239.43 218.13 190.24 218.13 214.84 175.53 239.43 218.13 190.24 218.13 214.84 175.53 239.43 218.13"/><polygon class="cls-6" points="226.11 219.83 172.98 219.83 199.54 173.82 226.11 219.83 172.98 219.83 199.54 173.82 226.11 219.83"/><polygon class="cls-7" points="212.78 221.52 155.72 221.52 184.25 172.1 212.78 221.52 155.72 221.52 184.25 172.1 212.78 221.52"/><polygon class="cls-8" points="199.46 223.22 138.45 223.22 168.96 170.38 199.46 223.22 138.45 223.22 168.96 170.38 199.46 223.22"/><polygon class="cls-9" points="186.14 224.92 121.19 224.92 153.66 168.67 186.14 224.92 121.19 224.92 153.66 168.67 186.14 224.92"/><polygon class="cls-10" points="172.82 226.62 103.92 226.62 138.37 166.95 172.82 226.62 103.92 226.62 138.37 166.95 172.82 226.62"/><polygon class="cls-11" points="159.5 228.31 86.66 228.31 123.08 165.23 159.5 228.31 86.66 228.31 123.08 165.23 159.5 228.31"/><polygon class="cls-12" points="146.18 230.01 69.4 230.01 107.79 163.52 146.18 230.01 69.4 230.01 107.79 163.52 146.18 230.01"/><polygon class="cls-13" points="132.85 231.71 52.13 231.71 92.49 161.8 132.85 231.71 52.13 231.71 92.49 161.8 132.85 231.71"/><polygon class="cls-14" points="119.53 233.41 34.87 233.41 77.2 160.09 119.53 233.41 34.87 233.41 77.2 160.09 119.53 233.41"/><polygon class="cls-15" points="61.91 158.37 106.21 235.1 17.61 235.1 61.91 158.37 106.21 235.1 17.61 235.1 61.91 158.37"/></g></svg>