<svg id="Layer_1" data-name="Layer 1" xmlns="http://www.w3.org/2000/svg" viewBox="0 0 297 298"><defs><style>.cls-1{opacity:0.5;}.cls-2{fill:none;stroke:#e3ed26;stroke-miterlimit:10;stroke-width:0.5px;}</style></defs><title>portfolio</title><g class="cls-1"><rect class="cls-2" x="106.83" y="190.87" width="46.23" height="46.54" transform="translate(-84.19 344.08) rotate(-90)"/><rect class="cls-2" x="106.83" y="190.87" width="46.23" height="46.54" transform="translate(-84.19 344.08) rotate(-90)"/><rect class="cls-2" x="106.68" y="186.76" width="50.49" height="50.49" transform="translate(-80.09 343.93) rotate(-90)"/><rect class="cls-2" x="103.03" y="183.42" width="57.49" height="50.19" transform="translate(-76.74 340.28) rotate(-90)"/><rect class="cls-2" x="103.03" y="183.42" width="57.49" height="50.19" transform="translate(-76.74 340.28) rotate(-90)"/><rect class="cls-2" x="102.11" y="178.85" width="62.96" height="53.84" transform="translate(-72.18 339.37) rotate(-90)"/><rect class="cls-2" x="102.11" y="178.85" width="62.96" height="53.84" transform="translate(-72.18 339.37) rotate(-90)"/><rect class="cls-2" x="101.2" y="177.03" width="65.7" height="54.75" transform="translate(-70.35 338.46) rotate(-90)"/><rect class="cls-2" x="101.2" y="177.03" width="65.7" height="54.75" transform="translate(-70.35 338.46) rotate(-90)"/><rect class="cls-2" x="101.2" y="177.03" width="65.7" height="54.75" transform="translate(-70.35 338.46) rotate(-90)"/><rect class="cls-2" x="101.2" y="177.03" width="65.7" height="54.75" transform="translate(-70.35 338.46) rotate(-90)"/><rect class="cls-2" x="101.2" y="177.03" width="65.7" height="54.75" transform="translate(-70.35 338.46) rotate(-90)"/><rect class="cls-2" x="101.2" y="172.47" width="70.26" height="59.31" transform="translate(-65.79 338.46) rotate(-90)"/><rect class="cls-2" x="101.2" y="172.47" width="70.26" height="59.31" transform="translate(-65.79 338.46) rotate(-90)"/><rect class="cls-2" x="100.29" y="167.9" width="75.74" height="62.96" transform="translate(-61.23 337.54) rotate(-90)"/><rect class="cls-2" x="99.83" y="163.8" width="80.3" height="66.61" transform="translate(-57.12 337.09) rotate(-90)"/><rect class="cls-2" x="99.83" y="163.8" width="80.3" height="66.61" transform="translate(-57.12 337.09) rotate(-90)"/><rect class="cls-2" x="99.83" y="158.32" width="85.78" height="72.09" transform="translate(-51.65 337.09) rotate(-90)"/><rect class="cls-2" x="99.83" y="158.32" width="85.78" height="72.09" transform="translate(-51.65 337.09) rotate(-90)"/><rect class="cls-2" x="99.83" y="158.32" width="85.78" height="72.09" transform="translate(-51.65 337.09) rotate(-90)"/><rect class="cls-2" x="100.29" y="153.3" width="90.34" height="77.56" transform="translate(-46.63 337.54) rotate(-90)"/><rect class="cls-2" x="103.94" y="149.65" width="90.34" height="84.86" transform="translate(-42.98 341.19) rotate(-90)"/><rect class="cls-2" x="109.41" y="144.18" width="90.34" height="95.81" transform="translate(-37.5 346.67) rotate(-90)"/><rect class="cls-2" x="113.52" y="140.98" width="89.43" height="103.11" transform="translate(-34.31 350.77) rotate(-90)"/><rect class="cls-2" x="122.65" y="138.25" width="83.04" height="114.98" transform="translate(-31.57 359.9) rotate(-90)"/><rect class="cls-2" x="129.95" y="138.25" width="75.74" height="122.28" transform="translate(-31.57 367.2) rotate(-90)"/><rect class="cls-2" x="134.05" y="142.35" width="67.53" height="122.28" transform="translate(-35.68 371.31) rotate(-90)"/><rect class="cls-2" x="143.63" y="144.63" width="55.66" height="129.58" transform="translate(-37.96 380.89) rotate(-90)"/><rect class="cls-2" x="149.11" y="164.71" width="30.11" height="114.98" transform="translate(-58.03 386.36) rotate(-90)"/><rect class="cls-2" x="150.48" y="188.89" width="4.56" height="92.16" transform="translate(-82.21 387.73) rotate(-90)"/><rect class="cls-2" x="124.47" y="219.46" width="22.81" height="58.4" transform="translate(-112.78 384.54) rotate(-90)"/><rect class="cls-2" x="102.57" y="241.36" width="33.76" height="25.55" transform="translate(-134.68 373.59) rotate(-90)"/><rect class="cls-2" x="92.53" y="251.4" width="33.76" height="5.48" transform="translate(-144.72 363.55) rotate(-90)"/><rect class="cls-2" x="91.16" y="244.55" width="22.81" height="8.21" transform="translate(-146.09 351.23) rotate(-90)"/><rect class="cls-2" x="89.64" y="237.25" width="17.03" height="17.03" transform="translate(-147.61 343.93) rotate(-90)"/><rect class="cls-2" x="90.86" y="221.44" width="5.48" height="26.16" transform="translate(-140.92 328.11) rotate(-90)"/><rect class="cls-2" x="66.22" y="196.8" width="54.75" height="26.16" transform="translate(-116.28 303.48) rotate(-90)"/><rect class="cls-2" x="46.45" y="177.03" width="112.24" height="8.21" transform="translate(-78.56 283.71) rotate(-90)"/><rect class="cls-2" x="45.08" y="166.53" width="132.31" height="9.13" transform="translate(-59.86 282.34) rotate(-90)"/><rect class="cls-2" x="49.8" y="148.13" width="146" height="32.24" transform="translate(-41.46 287.05) rotate(-90)"/><rect class="cls-2" x="55.12" y="136.42" width="152.39" height="49.28" transform="translate(-29.75 292.37) rotate(-90)"/><rect class="cls-2" x="61.05" y="124.1" width="158.78" height="67.53" transform="translate(-17.43 298.31) rotate(-90)"/><rect class="cls-2" x="72" y="119.54" width="152.39" height="83.04" transform="translate(-12.86 309.26) rotate(-90)"/><rect class="cls-2" x="82.65" y="120.15" width="141.13" height="93.08" transform="translate(-13.47 319.9) rotate(-90)"/><rect class="cls-2" x="90.71" y="138.25" width="114.98" height="83.04" transform="translate(-31.57 327.96) rotate(-90)"/><rect class="cls-2" x="89.34" y="165.17" width="89.43" height="54.75" transform="translate(-58.49 326.59) rotate(-90)"/><rect class="cls-2" x="82.5" y="203.95" width="57.49" height="9.13" transform="translate(-97.27 319.75) rotate(-90)"/><rect class="cls-2" x="72.91" y="203.49" width="51.1" height="16.43" transform="translate(-113.24 310.17) rotate(-90)"/><rect class="cls-2" x="65.16" y="195.73" width="52.93" height="30.11" transform="translate(-119.17 302.41) rotate(-90)"/><rect class="cls-2" x="50.56" y="181.13" width="66.61" height="45.63" transform="translate(-120.08 287.81) rotate(-90)"/><rect class="cls-2" x="39.91" y="170.49" width="87.6" height="45.93" transform="translate(-109.74 277.17) rotate(-90)"/><rect class="cls-2" x="33.22" y="163.8" width="106.76" height="40.15" transform="translate(-97.27 270.47) rotate(-90)"/><rect class="cls-2" x="31.09" y="161.67" width="125.01" height="26.16" transform="translate(-81.15 268.34) rotate(-90)"/><rect class="cls-2" x="38.39" y="164.41" width="141.13" height="4.56" transform="translate(-57.73 275.64) rotate(-90)"/><rect class="cls-2" x="44.63" y="154.22" width="145.09" height="20.99" transform="translate(-47.54 281.88) rotate(-90)"/><rect class="cls-2" x="49.8" y="148.13" width="146" height="32.24" transform="translate(-41.46 287.05) rotate(-90)"/><rect class="cls-2" x="49.8" y="148.13" width="146" height="32.24" transform="translate(-41.46 287.05) rotate(-90)"/><rect class="cls-2" x="49.8" y="148.13" width="146" height="32.24" transform="translate(-41.46 287.05) rotate(-90)"/><rect class="cls-2" x="49.8" y="148.13" width="146" height="32.24" transform="translate(-41.46 287.05) rotate(-90)"/></g></svg>